<svg width="17" height="7" viewBox="0 0 17 7" fill="none" xmlns="http://www.w3.org/2000/svg">
<path d="M4.02428 0.189591C3.93463 0.242716 0.969593 3.19447 0.923109 3.2808C0.863343 3.39037 0.883265 3.65268 0.956312 3.77221C1.06256 3.94154 3.92135 6.77709 4.0276 6.81694C4.45924 6.97963 4.8776 6.60776 4.74811 6.17944C4.71491 6.06322 4.54225 5.87397 3.70885 5.03393L2.70944 4.03119H8.50006H14.294L13.3079 5.01733C12.7667 5.56186 12.2985 6.05658 12.2686 6.11967C12.1092 6.44174 12.3782 6.85346 12.7467 6.85346C12.8298 6.85014 12.9327 6.83354 12.9758 6.81029C13.0622 6.76049 16.0272 3.80873 16.0737 3.7224C16.1335 3.61615 16.1169 3.34389 16.0405 3.22768C15.9376 3.05834 13.0755 0.222795 12.9725 0.18295C12.5409 0.0202556 12.1225 0.39213 12.252 0.820451C12.2852 0.936662 12.4579 1.12592 13.2913 1.96264L14.2907 2.96869H8.50006H2.70612L3.69225 1.97924C4.23346 1.43803 4.70162 0.943302 4.73151 0.880216C4.89088 0.558146 4.62194 0.146427 4.25338 0.146427C4.17037 0.149747 4.06745 0.166349 4.02428 0.189591Z" fill="white"/>
</svg>
