<svg width="18" height="18" viewBox="0 0 18 18" fill="none" xmlns="http://www.w3.org/2000/svg">
<path d="M4.68358 0.304708C4.40233 0.433615 4.31249 0.628927 4.31249 1.10549V1.44924L3.62108 1.47268C3.08983 1.4883 2.85155 1.51174 2.61327 1.57424C1.71093 1.81252 0.996082 2.39065 0.601551 3.19533C0.242176 3.9258 0.26952 3.37111 0.26952 9.60549C0.26952 15.6094 0.253895 15.1953 0.484364 15.8047C0.742176 16.5 1.49999 17.2578 2.1953 17.5156C2.80468 17.7461 2.32811 17.7305 8.99999 17.7305C15.6719 17.7305 15.1953 17.7461 15.8047 17.5156C16.5 17.2578 17.2578 16.5 17.5156 15.8047C17.7461 15.1953 17.7305 15.6094 17.7305 9.60549V4.09768L17.6406 3.79299C17.375 2.87502 16.7539 2.14455 15.9062 1.75783C15.4687 1.55471 15.125 1.49221 14.3633 1.46877L13.6953 1.45315L13.6797 1.0469C13.668 0.613302 13.6289 0.523458 13.3984 0.351583C13.2461 0.238302 12.8789 0.238302 12.7266 0.351583C12.4961 0.523458 12.457 0.613302 12.4453 1.05471L12.4297 1.46096H8.99999H5.5703L5.55468 1.05471C5.54296 0.617208 5.50389 0.523458 5.28124 0.35549C5.14843 0.257833 4.83983 0.23049 4.68358 0.304708ZM4.31249 3.08986C4.31249 3.41408 4.32811 3.49611 4.40233 3.62502C4.63671 4.04299 5.23827 4.04299 5.47264 3.62502C5.54686 3.49611 5.56249 3.41408 5.56249 3.08986V2.71096H8.99999H12.4375V3.08986C12.4375 3.41408 12.4531 3.49611 12.5273 3.62502C12.7617 4.04299 13.3633 4.04299 13.5976 3.62502C13.6719 3.49611 13.6875 3.41408 13.6875 3.08596V2.69924L14.3242 2.71877C15.0351 2.74221 15.3008 2.80471 15.6562 3.04299C16.2422 3.43361 16.5 3.98049 16.5 4.83596V5.25002H8.99999H1.49999L1.50389 4.80861C1.50389 4.52736 1.52733 4.28127 1.5703 4.1133C1.70702 3.58986 2.0703 3.16018 2.57421 2.9219C2.91405 2.75783 3.13671 2.72268 3.79686 2.71486L4.31249 2.71096V3.08986ZM16.5 10.6367C16.5 13.2852 16.4844 14.8477 16.4609 14.9805C16.3633 15.4922 15.9766 16.0196 15.5273 16.2617C15.0508 16.5156 15.4297 16.5 8.99999 16.5C2.5703 16.5 2.94921 16.5156 2.47265 16.2617C2.19921 16.1133 1.85936 15.7696 1.71874 15.4922C1.49218 15.0469 1.49999 15.211 1.49999 10.6719V6.50002H8.99999H16.5V10.6367Z" fill="white"/>
<path d="M11.8712 8.92578C11.8282 8.94921 10.9727 9.78906 9.96883 10.793L8.14071 12.6133L7.17586 11.6484C6.64071 11.1211 6.16805 10.668 6.12117 10.6445C6.0743 10.6211 5.95711 10.6016 5.86336 10.6016C5.42196 10.6016 5.11727 11.0937 5.32039 11.4844C5.36727 11.5703 5.92196 12.1562 6.60555 12.8359C7.62508 13.8477 7.83211 14.0391 7.97664 14.082C8.33211 14.1836 8.26571 14.2422 10.5352 11.9766C11.754 10.7617 12.6329 9.85546 12.6798 9.76562C12.8829 9.37109 12.5782 8.88281 12.129 8.88281C12.0313 8.88281 11.9141 8.90234 11.8712 8.92578Z" fill="white"/>
</svg>
