<svg width="7" height="17" viewBox="0 0 7 17" fill="none" xmlns="http://www.w3.org/2000/svg">
<path d="M0.189591 12.9757C0.242716 13.0654 3.19447 16.0304 3.2808 16.0769C3.39037 16.1367 3.65268 16.1167 3.77221 16.0437C3.94154 15.9374 6.77709 13.0786 6.81694 12.9724C6.97963 12.5408 6.60776 12.1224 6.17944 12.2519C6.06322 12.2851 5.87397 12.4578 5.03393 13.2911L4.03119 14.2906L4.03119 8.49994L4.03119 2.70599L5.01733 3.69212C5.56186 4.23334 6.05658 4.7015 6.11967 4.73138C6.44174 4.89076 6.85346 4.62181 6.85346 4.25326C6.85014 4.17025 6.83354 4.06732 6.81029 4.02416C6.76049 3.93783 3.80873 0.972789 3.7224 0.926305C3.61615 0.866539 3.34389 0.883141 3.22768 0.959508C3.05834 1.06244 0.222794 3.92455 0.18295 4.02748C0.0202549 4.45912 0.39213 4.87748 0.82045 4.74798C0.936661 4.71478 1.12592 4.54213 1.96264 3.70873L2.96869 2.70931L2.96869 8.49994L2.96869 14.2939L1.97924 13.3078C1.43803 12.7665 0.943302 12.2984 0.880216 12.2685C0.558146 12.1091 0.146427 12.3781 0.146427 12.7466C0.149747 12.8296 0.166349 12.9326 0.189591 12.9757Z" fill="white"/>
</svg>
