<svg width="20" height="20" viewBox="0 0 20 20" fill="none" xmlns="http://www.w3.org/2000/svg">
<path d="M9.69523 0.0820312C9.58586 0.136719 9.49601 0.222656 9.43351 0.332031L9.33586 0.496094V1.75391C9.33586 2.91797 9.33195 3.01562 9.26945 2.99219C9.23429 2.97656 8.85148 2.76562 8.42179 2.52344C7.39445 1.94531 7.41398 1.95312 7.20695 1.95312C6.84758 1.95312 6.57414 2.19531 6.53508 2.55078C6.50773 2.76562 6.62492 3.05078 6.78117 3.15234C6.83976 3.19141 7.43351 3.53125 8.10148 3.91016L9.31633 4.59766L9.32804 6.69531C9.33586 8.44531 9.32804 8.79297 9.28508 8.78125C9.25383 8.77344 8.4257 8.30469 7.44523 7.73828L5.65617 6.70312L5.66789 5.23828C5.6757 4.42969 5.66398 3.72656 5.64836 3.67188C5.55851 3.40625 5.28508 3.20703 5.00383 3.20312C4.78898 3.20312 4.54289 3.34375 4.43351 3.53516C4.33586 3.69531 4.33586 3.71875 4.30851 4.80078C4.29679 5.40234 4.27726 5.89844 4.27336 5.89844C4.26554 5.89844 3.78117 5.62109 3.19914 5.28516C2.20304 4.71094 2.12101 4.67188 1.93351 4.67188C1.49601 4.67188 1.18351 5.05469 1.26945 5.49609C1.31242 5.73438 1.54679 5.91797 2.60929 6.52344C3.14836 6.83594 3.59367 7.09766 3.59367 7.10938C3.59367 7.12109 3.18742 7.36719 2.69133 7.65625C2.19523 7.94531 1.74601 8.23438 1.69523 8.29297C1.64445 8.35156 1.58195 8.46875 1.55851 8.55078C1.41398 9.03906 1.89445 9.52734 2.37492 9.38281C2.45695 9.35938 3.07023 9.01172 3.74601 8.61719C4.42179 8.21875 4.98429 7.89844 4.99601 7.90625C5.22648 8.02344 8.59367 9.98438 8.59367 10C8.59367 10.0156 5.22648 11.9766 4.99601 12.0938C4.98429 12.1016 4.42179 11.7812 3.74601 11.3828C3.07023 10.9883 2.45695 10.6406 2.37492 10.6172C1.89445 10.4727 1.41398 10.9609 1.55851 11.4492C1.58195 11.5312 1.64445 11.6484 1.69523 11.707C1.74601 11.7656 2.19523 12.0547 2.69133 12.3438C3.18742 12.6328 3.59367 12.8789 3.59367 12.8906C3.59367 12.9023 3.15226 13.1641 2.60929 13.4766C1.55851 14.082 1.38664 14.2031 1.30461 14.4023C1.09367 14.9023 1.56633 15.4453 2.08976 15.3086C2.1757 15.2852 2.69914 15.0039 3.25383 14.6836C3.80461 14.3633 4.26554 14.1016 4.27336 14.1016C4.27726 14.1016 4.29679 14.5977 4.30851 15.1992C4.33586 16.2812 4.33586 16.3047 4.43351 16.4648C4.71867 16.957 5.46867 16.8711 5.64836 16.3281C5.66398 16.2734 5.6757 15.5703 5.66789 14.7617L5.65617 13.2969L7.44523 12.2617C8.4257 11.6953 9.25383 11.2266 9.28508 11.2188C9.32804 11.207 9.33586 11.5547 9.32804 13.3047L9.31633 15.4023L8.10148 16.0898C7.43351 16.4688 6.83976 16.8086 6.78117 16.8477C6.62492 16.9492 6.50773 17.2344 6.53508 17.4492C6.57414 17.8047 6.84758 18.0469 7.20695 18.0469C7.41398 18.0469 7.39445 18.0547 8.42179 17.4766C8.85148 17.2344 9.23429 17.0234 9.26945 17.0078C9.33195 16.9844 9.33586 17.082 9.33586 18.2461V19.5039L9.43351 19.6719C9.54289 19.8594 9.78898 20 9.99992 20C10.2109 20 10.457 19.8594 10.5663 19.6719L10.664 19.5039V18.2461C10.664 17.082 10.6679 16.9844 10.7304 17.0078C10.7655 17.0234 11.1484 17.2344 11.578 17.4766C12.6054 18.0547 12.5859 18.0469 12.7929 18.0469C13.1523 18.0469 13.4257 17.8047 13.4648 17.4492C13.4921 17.2344 13.3749 16.9492 13.2187 16.8477C13.1601 16.8086 12.5663 16.4688 11.8984 16.0898L10.6835 15.4023L10.6718 13.3047C10.664 11.5547 10.6718 11.207 10.7148 11.2188C10.746 11.2266 11.5741 11.6953 12.5546 12.2617L14.3437 13.2969L14.332 14.7617C14.3241 15.5703 14.3359 16.2734 14.3515 16.3281C14.4413 16.5938 14.7148 16.793 14.996 16.7969C15.2109 16.7969 15.457 16.6562 15.5663 16.4688C15.6601 16.3125 15.6601 16.2812 15.6874 15.2031C15.703 14.5977 15.7226 14.1016 15.7265 14.1016C15.7343 14.1016 16.1952 14.3633 16.746 14.6836C17.3007 15.0039 17.8241 15.2852 17.9101 15.3086C18.4335 15.4453 18.9062 14.9023 18.6952 14.4023C18.6132 14.2031 18.4413 14.082 17.3905 13.4766C16.8476 13.168 16.4062 12.9023 16.4062 12.8906C16.4062 12.8789 16.8124 12.6328 17.3085 12.3438C17.8046 12.0547 18.2538 11.7656 18.3046 11.707C18.3554 11.6484 18.4179 11.5312 18.4413 11.4492C18.5859 10.9609 18.1054 10.4727 17.6249 10.6172C17.5429 10.6406 16.9296 10.9883 16.2538 11.3828C15.578 11.7812 15.0155 12.1016 15.0038 12.0938C14.7734 11.9766 11.4062 10.0156 11.4062 10C11.4062 9.98438 14.7734 8.02344 15.0038 7.90625C15.0155 7.89844 15.578 8.21875 16.2538 8.61719C16.9296 9.01172 17.5429 9.35938 17.6249 9.38281C18.1054 9.52734 18.5859 9.03906 18.4413 8.55078C18.4179 8.46875 18.3554 8.35156 18.3046 8.29297C18.2538 8.23438 17.8046 7.94531 17.3085 7.65625C16.8124 7.36719 16.4062 7.12109 16.4062 7.10938C16.4062 7.09766 16.8515 6.83594 17.3945 6.52344C18.453 5.91797 18.6874 5.73438 18.7304 5.49609C18.8163 5.05469 18.5038 4.67188 18.0663 4.67188C17.8788 4.67188 17.7968 4.71094 16.8007 5.28516C16.2187 5.62109 15.7343 5.89844 15.7265 5.89844C15.7226 5.89844 15.703 5.40234 15.6913 4.80078C15.664 3.71875 15.664 3.69531 15.5663 3.53516C15.2812 3.04297 14.5312 3.12891 14.3515 3.67188C14.3359 3.72656 14.3241 4.42969 14.332 5.23828L14.3437 6.70312L12.5546 7.73828C11.5741 8.30469 10.746 8.77344 10.7148 8.78125C10.6718 8.79297 10.664 8.44531 10.6718 6.69531L10.6835 4.59766L11.8984 3.91016C12.5663 3.53125 13.1601 3.19141 13.2187 3.15234C13.3515 3.06641 13.4765 2.80469 13.4765 2.61719C13.4765 2.42188 13.3515 2.17578 13.1991 2.07031C13.0273 1.94531 12.6835 1.91797 12.496 2.01172C12.4218 2.05078 12.0116 2.27734 11.578 2.52344C11.1484 2.76562 10.7655 2.97656 10.7304 2.99219C10.6679 3.01562 10.664 2.91797 10.664 1.75391V0.496094L10.5663 0.328125C10.457 0.140625 10.2109 0 9.99601 0C9.92179 0 9.78898 0.0390625 9.69523 0.0820312Z" fill="white"/>
</svg>
