<svg width="20" height="20" viewBox="0 0 20 20" fill="none" xmlns="http://www.w3.org/2000/svg">
<g clip-path="url(#clip0_69_446)">
<path d="M13.7734 3.00781C12.543 3.14844 11.4766 3.58203 10.4492 4.35938C10.2578 4.50391 9.77734 4.89453 9.38281 5.22266C8.32422 6.11328 7.75781 6.46094 6.98438 6.69531C6.42969 6.86719 5.92188 6.92578 5.19531 6.90234C3.80859 6.85938 2.93359 6.50391 1.67969 5.46094C1.14453 5.01953 1.04297 4.96094 0.78125 4.96094C0.335938 4.96094 0 5.30859 0 5.76172C0.00390625 5.97656 0.132813 6.18359 0.433594 6.44922C1.73047 7.58984 2.76953 8.13672 4.12109 8.38281C4.42578 8.4375 4.70703 8.45312 5.39063 8.45312C6.07422 8.45312 6.35547 8.4375 6.66016 8.38281C7.45313 8.23828 8.11719 7.99219 8.78906 7.60156C9.32813 7.28906 9.68359 7.01953 10.7695 6.10156C11.8594 5.1875 12.5469 4.82031 13.5547 4.62109C14.0156 4.52734 15.2031 4.52734 15.6641 4.62109C16.625 4.8125 17.3594 5.19141 18.3086 5.98438C18.8359 6.42578 18.8477 6.43359 19.0664 6.48047C19.5703 6.59375 20.0547 6.14844 19.9844 5.64063C19.9492 5.37109 19.8672 5.25781 19.4844 4.93359C18.1797 3.82031 17.1641 3.29688 15.8594 3.07031C15.4219 2.99219 14.2266 2.95703 13.7734 3.00781Z" fill="white"/>
<path d="M14.0432 7.26559C12.4651 7.37497 11.2932 7.89841 9.78537 9.16403C8.81662 9.97653 8.66818 10.0937 8.32053 10.3281C7.42599 10.9336 6.57834 11.1758 5.39084 11.1758C3.89474 11.1758 2.9924 10.8242 1.64865 9.707C1.05881 9.21872 0.902557 9.15622 0.531463 9.26559C0.207245 9.36325 -0.0427555 9.76169 0.011932 10.0976C0.058807 10.375 0.156463 10.5 0.672088 10.9258C2.12131 12.1289 3.27756 12.625 4.87131 12.7304C6.19943 12.8203 7.46506 12.5781 8.47678 12.0468C9.17209 11.6797 9.53928 11.4101 10.7971 10.3554C12.1916 9.18356 13.0862 8.82419 14.6096 8.82419C16.1057 8.82419 17.008 9.17575 18.3518 10.2929C18.9416 10.7812 19.0979 10.8437 19.469 10.7343C19.7932 10.6367 20.0432 10.2383 19.9885 9.90231C19.9455 9.64059 19.8401 9.49997 19.4221 9.14841C17.883 7.86325 16.7776 7.37888 15.1018 7.26559C14.7971 7.24606 14.5354 7.23044 14.5119 7.23434C14.4924 7.23434 14.2815 7.24997 14.0432 7.26559Z" fill="white"/>
<path d="M13.8672 11.5469C12.3516 11.7266 11.2148 12.2305 9.98046 13.2695C8.92187 14.1602 8.64453 14.3828 8.35546 14.5781C7.74218 14.9883 7.14453 15.2422 6.44531 15.3789C5.98437 15.4727 4.79687 15.4727 4.33593 15.3789C3.37499 15.1875 2.64062 14.8086 1.6914 14.0156C1.15624 13.5703 1.14453 13.5625 0.917964 13.5195C0.410151 13.4258 -0.0546927 13.8555 0.0156198 14.3594C0.050776 14.6289 0.132807 14.7422 0.51562 15.0664C1.82421 16.1836 2.82031 16.6953 4.16015 16.9375C4.71093 17.0352 6.07031 17.0352 6.62109 16.9375C7.42187 16.793 8.07421 16.5586 8.75 16.1719C9.25 15.8828 9.67968 15.5625 10.6172 14.7773C11.6797 13.8828 12.25 13.5352 13.0156 13.3047C13.6172 13.125 13.7734 13.1055 14.6094 13.1055C15.4453 13.1055 15.6016 13.125 16.2031 13.3047C16.8984 13.5117 17.5195 13.875 18.3203 14.5391C18.8555 14.9805 18.957 15.0391 19.2187 15.0391C19.6641 15.0391 20 14.6914 20 14.2383C19.9961 14.0273 19.8633 13.8164 19.5664 13.5508C18.2969 12.4297 17.2031 11.8555 15.8789 11.6172C15.543 11.5586 14.1836 11.5117 13.8672 11.5469Z" fill="white"/>
</g>
<defs>
<clipPath id="clip0_69_446">
<rect width="20" height="20" fill="white"/>
</clipPath>
</defs>
</svg>
