<svg width="47" height="47" viewBox="0 0 47 47" fill="none" xmlns="http://www.w3.org/2000/svg">
<path d="M20.2627 4.17717L20.0494 4.36001L20.0265 5.51037L20.0036 6.66074H18.4876C17.6572 6.66074 16.9182 6.68359 16.8497 6.70644C16.5602 6.82072 16.5068 7.12545 16.5068 8.67958V10.1651H15.3793C13.7643 10.1651 13.9166 9.82994 13.9166 13.3877V16.2522L11.0141 16.275L8.11149 16.2979L7.92865 16.5112L7.74581 16.7245V29.2185V41.7049H7.08302C6.38975 41.7125 6.24501 41.7582 6.08502 42.0629C5.94027 42.3296 5.97837 42.5429 6.21453 42.7791L6.43546 43H23.7442H41.053L41.2739 42.7791C41.5101 42.5429 41.5482 42.3296 41.4034 42.0629C41.2435 41.7582 41.0987 41.7125 40.4131 41.7049H39.7426V24.4495C39.7426 6.00556 39.7579 6.84357 39.3998 6.70644C39.3313 6.68359 36.3982 6.66074 32.8938 6.66074H26.5097L26.3649 6.82072C26.2354 6.96547 26.2126 7.1483 26.1821 8.55769L26.144 10.1271H25.4964H24.8489L24.826 8.55769C24.8032 6.50075 24.9708 6.66835 22.9062 6.6455L21.3445 6.62264L21.3216 5.55608C21.3064 4.42857 21.253 4.21526 20.9483 4.07813C20.6741 3.94862 20.4988 3.9791 20.2627 4.17717ZM23.5157 9.0605V10.1651L20.6817 10.1499L17.84 10.1271L17.8172 9.03764L17.7943 7.95584H20.6588H23.5157V9.0605ZM38.4475 24.8304V41.7049L36.0325 41.6897L33.6099 41.6668L33.5947 32.7153C33.5794 26.1636 33.549 23.7181 33.488 23.5962C33.3738 23.3829 33.0233 23.2381 32.7948 23.3067C32.5053 23.3981 32.3529 23.581 32.3072 23.8933L32.2539 24.1828H31.6292H31.0045L30.9511 23.8933C30.8216 23.0553 29.7703 23.101 29.6713 23.9543L29.6484 24.1447L28.5666 24.1676L27.4772 24.1904V16.0693V7.95584H32.9624H38.4475V24.8304ZM26.1668 17.7987L26.144 24.1447H23.7442H21.3445L21.3216 23.0553L21.2988 21.9735H22.3501C23.5004 21.9735 23.7138 21.9126 23.8814 21.5621C24.0033 21.3107 23.9499 21.0288 23.7366 20.846C23.6147 20.7393 23.3785 20.7089 22.4644 20.6784L21.3445 20.6403L21.3216 19.5509L21.2988 18.4691H22.3501C23.5004 18.4691 23.7138 18.4081 23.8814 18.0577C24.0033 17.8063 23.9499 17.5244 23.7366 17.3416C23.6147 17.2349 23.3785 17.2045 22.4644 17.174L21.3445 17.1359L21.3216 16.9454C21.2911 16.6483 21.154 16.435 20.9483 16.3436C20.8264 16.2903 19.8589 16.2598 17.9924 16.2598H15.2117V13.86V11.4603H20.6969H26.1821L26.1668 17.7987ZM20.0113 29.6299V41.7049H18.4952H16.9716L16.9487 40.1508C16.9259 38.6195 16.9259 38.589 16.743 38.3986L16.5602 38.2005H14.5566C12.7053 38.2005 12.553 38.2081 12.3854 38.3452C12.2025 38.49 12.2025 38.5204 12.1644 40.0822L12.1263 41.6668L10.5874 41.6897L9.04092 41.7049V29.6832C9.04092 23.0705 9.06377 17.6311 9.09425 17.6082C9.1171 17.5778 11.5854 17.5549 14.5794 17.5549H20.0113V29.6299ZM32.2767 33.5914V41.7049L26.8144 41.6897L21.3445 41.6668L21.3216 33.5686L21.3064 25.4779H26.7915H32.2767V33.5914ZM15.6536 40.5774L15.6307 41.6668L15.4327 41.6897L15.227 41.7125L15.2041 41.0269C15.1736 40.4326 15.1508 40.3184 14.9908 40.1508C14.7623 39.907 14.3966 39.8917 14.1376 40.0974C13.9776 40.2269 13.9471 40.326 13.9166 40.9583C13.8785 41.6668 13.8785 41.6668 13.6728 41.6897L13.4595 41.7125V40.6079V39.4956H14.5642H15.6765L15.6536 40.5774Z" fill="white"/>
<path d="M29.877 10.3555C29.7018 10.5231 29.6865 10.5993 29.6865 11.2316C29.6865 11.8639 29.7018 11.9401 29.877 12.1077C30.1893 12.4277 30.6769 12.3439 30.8902 11.9401C31.0197 11.704 31.0045 10.7364 30.8674 10.4774C30.6769 10.1041 30.1817 10.0432 29.877 10.3555Z" fill="white"/>
<path d="M32.5205 10.3177C32.193 10.6224 32.1853 11.7652 32.5053 12.108C32.7491 12.367 33.13 12.367 33.3814 12.108C33.5566 11.9404 33.5719 11.8642 33.5719 11.209C33.5719 10.5615 33.5566 10.4777 33.3967 10.3329C33.1681 10.1196 32.7415 10.112 32.5205 10.3177Z" fill="white"/>
<path d="M35.1333 10.3555C34.9581 10.5231 34.9429 10.5993 34.9429 11.2316C34.9429 11.8639 34.9581 11.9401 35.1333 12.1077C35.4457 12.4277 35.9332 12.3439 36.1466 11.9401C36.2761 11.704 36.2608 10.7364 36.1237 10.4774C35.9332 10.1041 35.4381 10.0432 35.1333 10.3555Z" fill="white"/>
<path d="M30.0295 14.599C29.74 14.7666 29.6943 14.9114 29.6943 15.6122C29.6943 16.3741 29.7553 16.5188 30.1286 16.6483C30.3038 16.7093 30.4181 16.7017 30.5781 16.6255C30.9056 16.4731 30.9894 16.2293 30.9666 15.5208C30.9514 15.0104 30.9133 14.8657 30.7914 14.7438C30.6009 14.5457 30.2276 14.4771 30.0295 14.599Z" fill="white"/>
<path d="M32.6575 14.6064C32.5584 14.6598 32.4289 14.7893 32.3756 14.8883C32.2537 15.1321 32.2537 16.092 32.3756 16.3358C32.5203 16.6177 32.8403 16.7472 33.1298 16.6481C33.5031 16.5186 33.5641 16.3663 33.5717 15.6349C33.5717 14.8578 33.5412 14.7664 33.2593 14.6217C33.0003 14.4845 32.9013 14.4845 32.6575 14.6064Z" fill="white"/>
<path d="M35.2857 14.599C34.9962 14.7666 34.9505 14.9113 34.9429 15.6198C34.9429 16.2598 34.9581 16.3207 35.1333 16.4883C35.3924 16.7321 35.7961 16.7321 36.0323 16.5035C36.177 16.3588 36.2075 16.2293 36.2227 15.6579C36.2532 15.0484 36.238 14.9723 36.0704 14.7894C35.8647 14.5533 35.5066 14.4618 35.2857 14.599Z" fill="white"/>
<path d="M29.877 19.1167C29.7018 19.2843 29.6865 19.3604 29.6865 19.9928C29.6865 20.6251 29.7018 20.7013 29.877 20.8689C29.9989 20.9984 30.1436 21.0593 30.3112 21.0593C30.7988 21.0517 30.9816 20.7622 30.9816 19.9928C30.9816 19.2233 30.7988 18.9338 30.3112 18.9262C30.1436 18.9262 29.9989 18.9871 29.877 19.1167Z" fill="white"/>
<path d="M32.5664 19.0329C32.3683 19.1776 32.2769 19.49 32.2769 19.9928C32.2769 20.7394 32.4749 21.0517 32.9473 21.0593C33.1149 21.0593 33.2596 20.9984 33.3815 20.8689C33.5567 20.7013 33.572 20.6251 33.572 19.9928C33.572 19.3604 33.5567 19.2843 33.3815 19.1167C33.1758 18.9033 32.7797 18.8653 32.5664 19.0329Z" fill="white"/>
<path d="M35.1333 19.1168C34.9581 19.2844 34.9429 19.3605 34.9429 19.9929C34.9429 20.6252 34.9581 20.7014 35.1333 20.869C35.4457 21.1889 35.9332 21.1051 36.1466 20.7014C36.2761 20.4652 36.2608 19.4977 36.1237 19.2386C35.9332 18.8654 35.4381 18.8044 35.1333 19.1168Z" fill="white"/>
<path d="M35.2857 23.3601C35.2019 23.4058 35.0953 23.5048 35.042 23.5657C34.9124 23.7257 34.9124 25.0208 35.042 25.1808C35.3086 25.5313 35.8114 25.5389 36.0857 25.1961C36.2076 25.0361 36.238 24.8837 36.238 24.3657C36.238 23.8171 36.2152 23.7105 36.0704 23.5429C35.8647 23.3143 35.5067 23.2305 35.2857 23.3601Z" fill="white"/>
<path d="M35.1333 27.8776C34.9581 28.0452 34.9429 28.1214 34.9429 28.7537C34.9429 29.3861 34.9581 29.4622 35.1333 29.6298C35.4381 29.9422 35.9332 29.8812 36.1237 29.5079C36.2608 29.2489 36.2761 28.2814 36.1466 28.0452C35.9332 27.6415 35.4457 27.5577 35.1333 27.8776Z" fill="white"/>
<path d="M35.4 32.083C35.339 32.1059 35.2095 32.1973 35.1181 32.2811C34.9581 32.4182 34.9429 32.5097 34.9429 33.1267C34.9505 33.8429 34.9962 33.9876 35.3009 34.1476C35.5676 34.2923 35.7809 34.2543 36.0247 34.0105C36.2532 33.7819 36.2532 33.7667 36.2227 33.0963C36.2075 32.5401 36.1694 32.3878 36.0475 32.2659C35.8799 32.0983 35.5752 32.0145 35.4 32.083Z" fill="white"/>
<path d="M35.1333 36.6389C34.9581 36.8065 34.9429 36.8827 34.9429 37.515C34.9429 38.1473 34.9581 38.2235 35.1333 38.3911C35.4381 38.7034 35.9332 38.6425 36.1237 38.2692C36.2608 38.0102 36.2761 37.0426 36.1466 36.8065C35.9332 36.4027 35.4457 36.3189 35.1333 36.6389Z" fill="white"/>
<path d="M17.5889 13.8447C17.3985 14.0428 17.368 14.4694 17.528 14.6751C17.7261 14.9417 18.0079 14.9646 20.72 14.9646C23.615 14.9646 23.6988 14.9494 23.8816 14.5532C24.0111 14.3018 23.9502 14.0275 23.7293 13.8219C23.5693 13.6771 23.4702 13.6695 20.6591 13.6695H17.7489L17.5889 13.8447Z" fill="white"/>
<path d="M11.5702 20.7318C11.2807 20.8461 11.1207 22.0422 11.3416 22.4536C11.5549 22.8573 12.0425 22.9411 12.3548 22.6212C12.5301 22.4536 12.5453 22.3774 12.5453 21.7451C12.5453 21.1127 12.5301 21.0366 12.3548 20.869C12.1796 20.6861 11.8292 20.6252 11.5702 20.7318Z" fill="white"/>
<path d="M14.107 20.8689C13.9317 21.0365 13.9165 21.1126 13.9165 21.745C13.9165 22.3773 13.9317 22.4535 14.107 22.6211C14.2289 22.7506 14.3736 22.8115 14.5412 22.8115C15.0135 22.8039 15.2116 22.4916 15.2116 21.745C15.2116 20.9984 15.0135 20.686 14.5412 20.6784C14.3736 20.6784 14.2289 20.7393 14.107 20.8689Z" fill="white"/>
<path d="M16.8039 20.7774C16.583 20.945 16.5068 21.1964 16.5068 21.745C16.5068 22.5144 16.6897 22.8039 17.1772 22.8115C17.3448 22.8115 17.4896 22.7506 17.6115 22.6211C17.7867 22.4535 17.8019 22.3773 17.8019 21.745C17.8019 21.1126 17.7867 21.0365 17.6115 20.8689C17.4058 20.6632 17.0096 20.6175 16.8039 20.7774Z" fill="white"/>
<path d="M11.6614 25.097C11.349 25.2189 11.25 25.4703 11.25 26.1331C11.25 26.6359 11.2805 26.7883 11.4024 26.9483C11.6766 27.2911 12.1794 27.2835 12.4461 26.933C12.5756 26.773 12.5756 25.4779 12.4461 25.3179C12.248 25.0589 11.9585 24.9751 11.6614 25.097Z" fill="white"/>
<path d="M14.2593 25.1123C13.9698 25.2799 13.9241 25.4246 13.9165 26.1331C13.9165 26.7197 13.9394 26.8416 14.0689 26.9864C14.2746 27.2073 14.5488 27.2683 14.8002 27.1388C15.1354 26.9864 15.2192 26.7426 15.1964 26.0341C15.1811 25.5237 15.143 25.3789 15.0212 25.257C14.8307 25.059 14.4574 24.9904 14.2593 25.1123Z" fill="white"/>
<path d="M16.8878 25.1199C16.6135 25.257 16.5068 25.5313 16.5068 26.1255C16.5068 26.735 16.6135 26.994 16.9182 27.1388C17.1696 27.2683 17.4439 27.2073 17.6496 26.9864C17.7791 26.8416 17.8019 26.7197 17.8019 26.1331C17.7943 25.417 17.7486 25.2723 17.4439 25.1123C17.2382 24.998 17.1239 24.998 16.8878 25.1199Z" fill="white"/>
<path d="M11.5471 29.5385C11.3262 29.7061 11.25 29.9575 11.25 30.506C11.25 31.0698 11.3719 31.4431 11.5928 31.5269C11.8595 31.6259 12.1718 31.5726 12.3547 31.3821C12.5299 31.2145 12.5451 31.1383 12.5451 30.506C12.5451 29.8737 12.5299 29.7975 12.3547 29.6299C12.149 29.4242 11.7528 29.3785 11.5471 29.5385Z" fill="white"/>
<path d="M14.107 29.6299C13.9317 29.7975 13.9165 29.8737 13.9165 30.5289C13.9165 31.1764 13.9317 31.2602 14.0917 31.405C14.3203 31.6183 14.7469 31.6259 14.9678 31.4202C15.2954 31.1155 15.303 29.9727 14.9831 29.6299C14.7393 29.3709 14.3584 29.3709 14.107 29.6299Z" fill="white"/>
<path d="M16.8039 29.5385C16.583 29.7061 16.5068 29.9575 16.5068 30.506C16.5068 31.0698 16.6287 31.4431 16.8497 31.5269C17.1163 31.6259 17.4286 31.5726 17.6115 31.3821C17.7867 31.2145 17.8019 31.1383 17.8019 30.506C17.8019 29.8737 17.7867 29.7975 17.6115 29.6299C17.4058 29.4242 17.0096 29.3785 16.8039 29.5385Z" fill="white"/>
<path d="M11.6309 33.8807C11.349 34.0255 11.25 34.2921 11.25 34.9473C11.25 35.5111 11.2652 35.5568 11.4709 35.7701C11.7071 36.0063 11.9204 36.0443 12.1871 35.8996C12.4918 35.7396 12.5375 35.5949 12.5451 34.8787C12.5451 34.2617 12.5299 34.1702 12.3775 34.0255C12.149 33.8198 11.8671 33.7589 11.6309 33.8807Z" fill="white"/>
<path d="M14.305 33.8656C13.9775 33.9951 13.9241 34.155 13.9165 34.9016C13.9165 35.5111 13.9394 35.633 14.0689 35.7625C14.3888 36.0825 14.9145 36.0063 15.1126 35.6101C15.2421 35.3511 15.2345 34.4369 15.105 34.1703C15.044 34.056 14.9069 33.9265 14.7926 33.8732C14.5641 33.7665 14.5488 33.7665 14.305 33.8656Z" fill="white"/>
<path d="M16.8879 33.8808C16.7889 33.9341 16.6594 34.0637 16.6061 34.1627C16.4842 34.4065 16.4842 35.3664 16.6061 35.6102C16.8194 36.0292 17.3222 36.0977 17.6498 35.7473C17.7793 35.6026 17.8021 35.4807 17.8021 34.8864C17.8021 34.2617 17.7869 34.1703 17.6345 34.0256C17.406 33.8199 17.1241 33.7589 16.8879 33.8808Z" fill="white"/>
<path d="M23.8966 26.872C23.508 27.07 23.5156 26.9101 23.5156 33.5761C23.5156 40.1887 23.5156 40.1506 23.8585 40.2878C24.1327 40.3868 24.4832 40.3335 24.6431 40.1583L24.8107 39.983V33.5837C24.8031 26.8263 24.8184 27.0548 24.4527 26.8643C24.247 26.7501 24.1327 26.7501 23.8966 26.872Z" fill="white"/>
<path d="M26.5707 26.8569C26.1745 27.0168 26.1897 26.735 26.1821 33.561C26.1821 39.8918 26.1821 39.9299 26.3421 40.1355C26.6392 40.5165 27.3173 40.3489 27.4391 39.8613C27.462 39.7622 27.4696 36.8673 27.462 33.4238C27.4391 27.2759 27.4391 27.154 27.2868 27.0092C27.0963 26.8188 26.8068 26.7578 26.5707 26.8569Z" fill="white"/>
<path d="M29.1534 26.872C28.7649 27.07 28.7725 26.9101 28.7725 33.5761C28.7725 40.1887 28.7725 40.1506 29.1153 40.2878C29.3896 40.3868 29.74 40.3335 29.9 40.1583L30.0676 39.983V33.5837C30.06 26.8263 30.0752 27.0548 29.7095 26.8643C29.5038 26.7501 29.3896 26.7501 29.1534 26.872Z" fill="white"/>
</svg>
