<svg width="35" height="37" viewBox="0 0 35 37" fill="none" xmlns="http://www.w3.org/2000/svg">
<path d="M8.13477 0.867187V1.73438H17.5H26.8652V0.867187V-2.23517e-08H17.5H8.13477V0.867187Z" fill="white"/>
<path d="M15.2988 5.13808C14.123 6.40996 13.1523 7.47226 13.1387 7.50117C13.1318 7.53008 13.3711 7.81191 13.6719 8.12988L14.2188 8.70801L15.4492 7.40722L16.6797 6.10644V18.5V30.8936L15.4492 29.5928L14.2188 28.292L13.6582 28.8846L13.0977 29.4771L14.7451 31.2693C15.6543 32.2521 16.6455 33.3217 16.9463 33.6396L17.5 34.2178L18.0537 33.6396C18.3545 33.3217 19.3457 32.2521 20.2549 31.2693L21.9023 29.4771L21.3418 28.8846L20.7812 28.292L19.5508 29.5928L18.3203 30.8936V18.5V6.10644L19.5508 7.40722L20.7812 8.70801L21.3281 8.12988C21.6289 7.81191 21.8682 7.53008 21.8613 7.50117C21.8271 7.40722 17.5547 2.81836 17.5 2.81836C17.4658 2.81836 16.4814 3.85898 15.2988 5.13808Z" fill="white"/>
<path d="M8.13477 36.1328V37H17.5H26.8652V36.1328V35.2656H17.5H8.13477V36.1328Z" fill="white"/>
</svg>
