<svg width="39" height="40" viewBox="0 0 39 40" fill="none" xmlns="http://www.w3.org/2000/svg">
<path d="M0.393997 0.117165C0.0209371 0.32806 0.0133236 0.421791 0.0057101 3.11658C0.0057101 5.85823 0.020937 5.9754 0.424451 6.16286C0.538653 6.21753 0.972621 6.25659 1.45227 6.25659H2.28975V20.0039V33.7512H1.45227C0.515813 33.7512 0.249341 33.8371 0.0970717 34.1808C-0.0323572 34.4698 -0.0323572 39.2814 0.0970717 39.5704C0.279795 39.9844 0.401611 40 3.0511 40C5.70059 40 5.8224 39.9844 6.00512 39.5704C6.05842 39.4532 6.09649 39.008 6.09649 38.5159V37.6567H19.4962H32.8959V38.5159C32.8959 39.4767 32.9796 39.75 33.3146 39.9063C33.4517 39.9766 34.2206 40 35.9489 40C38.5908 40 38.7126 39.9844 38.8953 39.5704C39.04 39.2501 39.0247 34.4386 38.8801 34.1496C38.7126 33.8293 38.4613 33.7512 37.5401 33.7512H36.7026V20.0039V6.25659H37.5401C38.4613 6.25659 38.7126 6.17848 38.8801 5.85823C39.04 5.53798 39.04 0.726421 38.8801 0.40617C38.6821 0.0234337 38.5603 0.0078125 35.9413 0.0078125C34.2206 0.0078125 33.4517 0.0312462 33.3146 0.101543C32.9796 0.257763 32.8959 0.531147 32.8959 1.4919V2.3511H19.4962H6.09649V1.4919C6.09649 0.546768 6.02035 0.289005 5.7082 0.117165C5.41127 -0.0390549 0.668082 -0.0390549 0.393997 0.117165ZM4.57379 3.1322V4.6944H3.0511H1.5284V3.1322V1.57001H3.0511H4.57379V3.1322ZM37.464 3.1322V4.6944H35.9413H34.4186V3.1322V1.57001H35.9413H37.464V3.1322ZM32.8959 4.77251C32.8959 6.13161 33.0101 6.25659 34.3425 6.25659H35.1799V8.05311V9.84964H24.2927H13.4054V8.99043C13.4054 8.02968 13.3217 7.7563 12.9867 7.60008C12.8496 7.52978 12.0807 7.50635 10.36 7.50635C7.741 7.50635 7.61918 7.52197 7.42123 7.90471C7.27657 8.19371 7.26135 13.0053 7.406 13.3255C7.55827 13.6692 7.82474 13.7551 8.7612 13.7551H9.59868V17.6606C9.59868 21.902 9.59868 21.902 10.0174 22.0972C10.2687 22.2144 10.4514 22.2144 10.7026 22.0972C11.1214 21.902 11.1214 21.902 11.1214 17.6606V13.7551H11.9589C13.2836 13.7551 13.4054 13.638 13.4054 12.271V11.4118H24.2927H35.1799V22.5815V33.7512H34.3425C33.0101 33.7512 32.8959 33.8762 32.8959 35.2353V36.0945H22.0086H11.1214V32.189C11.1214 27.9477 11.1214 27.9477 10.7026 27.7524C10.4514 27.6352 10.2687 27.6352 10.0174 27.7524C9.59868 27.9477 9.59868 27.9477 9.59868 32.189V36.0945H7.84758H6.09649V35.2353C6.09649 33.8762 5.98228 33.7512 4.64993 33.7512H3.81244V20.0039V6.25659H4.64993C5.98228 6.25659 6.09649 6.13161 6.09649 4.77251V3.9133H19.4962H32.8959V4.77251ZM11.8827 10.6307V12.1929H10.36H8.83734V10.6307V9.06854H10.36H11.8827V10.6307ZM4.57379 36.8756V38.4378H3.0511H1.5284V36.8756V35.3134H3.0511H4.57379V36.8756ZM37.464 36.8756V38.4378H35.9413H34.4186V36.8756V35.3134H35.9413H37.464V36.8756Z" fill="white"/>
</svg>
