<svg width="34" height="34" viewBox="0 0 34 34" fill="none" xmlns="http://www.w3.org/2000/svg">
<g clip-path="url(#clip0_323_211)">
<path d="M8.20117 0.112792C7.30469 0.438183 6.83984 1.14873 6.83984 2.19795V2.64951L4.17031 2.66943C1.52734 2.68935 1.4875 2.68935 1.18203 2.84209C0.783594 3.04131 0.385156 3.43975 0.185938 3.83818L0.0332031 4.15029V16.9999V29.8495L0.185938 30.1616C0.385156 30.5601 0.783594 30.9585 1.18203 31.1577L1.49414 31.3104L6.38828 31.3304L11.2824 31.3437L11.5016 31.1511C11.6809 30.9917 11.7207 30.912 11.7207 30.6796C11.7207 30.4472 11.6809 30.3675 11.5016 30.2081L11.2891 30.0155H6.53438H1.77969L1.55391 29.7897L1.32813 29.564V16.9999V4.43584L1.55391 4.21006L1.77969 3.98428H4.30313H6.82656L6.85313 4.56201C6.89961 5.49834 7.23828 6.06943 7.95547 6.42139C8.26758 6.57412 8.42031 6.60732 8.83203 6.60732C10.0074 6.60732 10.7445 5.84365 10.8109 4.56201L10.8375 3.98428H16.2031H21.5688L21.5953 4.56201C21.6285 5.21943 21.768 5.60459 22.1066 5.99639C22.6512 6.60732 23.6805 6.7999 24.4508 6.42139C25.168 6.06943 25.5066 5.49834 25.5531 4.56201L25.5797 3.98428H28.1031H30.6266L30.8523 4.21006L31.0781 4.43584V6.20225V7.96865H18.4609C4.72813 7.96865 5.56484 7.94209 5.39219 8.33389C5.29258 8.55303 5.29258 8.7124 5.39219 8.93154C5.56484 9.32334 4.72813 9.29678 18.4609 9.29678H31.0781V15.8644V22.4386L30.4672 22.1464C30.1285 21.987 29.7102 21.821 29.5375 21.7745L29.2188 21.7015V16.6944C29.2188 12.9624 29.1988 11.6476 29.1391 11.5214C28.9664 11.1362 29.7898 11.1562 16.2031 11.1562C2.61641 11.1562 3.43984 11.1362 3.26719 11.5214C3.1543 11.7737 3.1543 27.5386 3.26719 27.7909C3.43984 28.1761 2.93516 28.1562 12.6105 28.1562H21.509L21.5488 28.4019C21.5953 28.7073 21.8477 29.8163 21.8941 29.9292C21.9207 29.9956 21.3297 30.0155 19.0918 30.0155C16.077 30.0155 15.9773 30.0222 15.8047 30.3409C15.7184 30.5069 15.7184 30.8522 15.8047 31.0183C15.9773 31.337 16.0504 31.3437 19.4305 31.3437H22.5914L23.1891 31.9745C24.0789 32.9175 25.0219 33.4819 26.2305 33.8073C27.0473 34.0265 28.4816 34.0265 29.2852 33.8073C31.1047 33.3159 32.5656 32.114 33.3691 30.4472C33.8273 29.5042 33.9602 28.8999 33.9602 27.7577C33.9668 26.9608 33.9402 26.6952 33.8141 26.2304C33.6215 25.5065 33.1633 24.5702 32.7383 24.0124L32.4063 23.5808L32.393 13.8655L32.373 4.15029L32.2203 3.83818C32.0145 3.42646 31.6426 3.04795 31.2375 2.84873L30.9121 2.68935L28.2492 2.66943L25.5797 2.64951L25.5531 2.07178C25.5066 1.14209 25.168 0.570995 24.4508 0.219042C24.1387 0.0663076 23.9859 0.0331045 23.5742 0.0331045C22.3988 0.0331045 21.6617 0.796776 21.5953 2.07178L21.5688 2.65615H16.2031H10.8375L10.8109 2.07178C10.7777 1.421 10.6383 1.03584 10.2996 0.644042C9.82813 0.106151 8.88516 -0.132911 8.20117 0.112792ZM9.15742 1.421C9.46953 1.58701 9.49609 1.74639 9.49609 3.32685C9.49609 4.4624 9.47617 4.82764 9.40313 4.97373C9.1707 5.41201 8.49336 5.41201 8.26094 4.97373C8.12813 4.71475 8.12813 1.90576 8.26094 1.6667C8.43359 1.35459 8.81875 1.24834 9.15742 1.421ZM23.8996 1.421C24.2117 1.58701 24.2383 1.74639 24.2383 3.32685C24.2383 4.4624 24.2184 4.82764 24.1453 4.97373C23.9129 5.41201 23.2355 5.41201 23.0031 4.97373C22.8703 4.71475 22.8703 1.90576 23.0031 1.6667C23.1758 1.35459 23.5609 1.24834 23.8996 1.421ZM8.10156 14.4433V16.4022H6.30859H4.51563V14.4433V12.4843H6.30859H8.10156V14.4433ZM13.082 14.4433V16.4022H11.2559H9.42969V14.4433V12.4843H11.2559H13.082V14.4433ZM17.9961 14.4433V16.4022H16.2031H14.4102V14.4433V12.4843H16.2031H17.9961V14.4433ZM22.9766 14.4433V16.4022H21.1504H19.3242V14.4433V12.4843H21.1504H22.9766V14.4433ZM27.8906 14.4433V16.4022H26.0977H24.3047V14.4433V12.4843H26.0977H27.8906V14.4433ZM8.10156 19.6562V21.5819H6.30859H4.51563V19.6562V17.7304H6.30859H8.10156V19.6562ZM13.082 19.6562V21.5819H11.2559H9.42969V19.6562V17.7304H11.2559H13.082V19.6562ZM17.9961 19.6562V21.5819H16.2031H14.4102V19.6562V17.7304H16.2031H17.9961V19.6562ZM22.9766 19.6562V21.5819H21.1504H19.3242V19.6562V17.7304H21.1504H22.9766V19.6562ZM27.8906 19.6163V21.4956L27.3461 21.5354C27.0406 21.562 26.2371 21.5819 25.5531 21.5819H24.3047V19.6562V17.7304H26.0977H27.8906V19.6163ZM29.1191 23.0429C30.3941 23.4413 31.5031 24.3312 32.0543 25.4003C32.5125 26.2901 32.6387 26.7948 32.6387 27.7577C32.6387 28.7206 32.5125 29.2319 32.0543 30.1151C31.6691 30.8522 30.8523 31.669 30.1152 32.0542C29.232 32.5124 28.7207 32.6386 27.7578 32.6386C27.0738 32.6386 26.8414 32.612 26.4297 32.4792C24.7297 31.9546 23.5676 30.7925 23.043 29.119C22.4652 27.253 23.2156 25.0085 24.8227 23.8265C25.3074 23.4679 26.1574 23.0761 26.7285 22.9499C27.3793 22.8038 28.5016 22.8503 29.1191 23.0429ZM8.10156 24.869V26.828H6.30859H4.51563V24.869V22.9101H6.30859H8.10156V24.869ZM13.082 24.869V26.828H11.2559H9.42969V24.869V22.9101H11.2559H13.082V24.869ZM17.9961 24.869V26.828H16.2031H14.4102V24.869V22.9101H16.2031H17.9961V24.869ZM22.9766 23.3284C22.9766 23.7136 22.9566 23.7733 22.7043 24.1054C22.5582 24.3046 22.3059 24.7362 22.1465 25.0683C21.8941 25.5929 21.7945 25.8917 21.6219 26.6421L21.582 26.828H20.4531H19.3242V24.869V22.9101H21.1504H22.9766V23.3284Z" fill="white"/>
<path d="M28.7473 27.0737L27.625 28.1827L27.1402 27.7112C26.4363 27.0206 26.2039 26.9409 25.8187 27.2862C25.6395 27.4456 25.5996 27.5253 25.5996 27.7511C25.5996 28.0167 25.6395 28.0632 26.4828 28.8999C27.7113 30.1351 27.4988 30.1749 29.3184 28.3554C30.1086 27.5718 30.766 26.8612 30.7859 26.7749C30.8922 26.3765 30.5602 25.9647 30.1285 25.9647C29.8762 25.9647 29.8164 26.0112 28.7473 27.0737Z" fill="white"/>
<path d="M2.99505 8.06172C2.41732 8.38047 2.66302 9.29688 3.32044 9.29688C3.65911 9.29688 3.9845 8.97148 3.9845 8.63945C3.9845 8.14141 3.43333 7.81602 2.99505 8.06172Z" fill="white"/>
<path d="M13.4008 30.1217C13.175 30.2412 13.082 30.4072 13.082 30.6795C13.082 30.9584 13.1816 31.1244 13.4141 31.244C13.6996 31.3901 13.9188 31.3635 14.1578 31.151C14.3371 30.9916 14.377 30.9119 14.377 30.6795C14.377 30.4471 14.3371 30.3674 14.1578 30.208C13.9188 29.9955 13.6797 29.969 13.4008 30.1217Z" fill="white"/>
</g>
<defs>
<clipPath id="clip0_323_211">
<rect width="34" height="34" fill="white"/>
</clipPath>
</defs>
</svg>
