<svg width="17" height="7" viewBox="0 0 17 7" fill="none" xmlns="http://www.w3.org/2000/svg"><path d="M4.024.19C3.934.243.97 3.194.924 3.28c-.06.11-.04.373.032.492.107.17 2.965 3.005 3.072 3.045.431.163.85-.21.72-.638-.033-.116-.206-.305-1.04-1.145L2.71 4.03h11.585l-.986.986c-.541.545-1.01 1.04-1.04 1.103-.159.322.11.733.479.733a.668.668 0 0 0 .229-.043c.086-.05 3.051-3.001 3.098-3.088.06-.106.043-.378-.034-.494-.102-.17-2.964-3.005-3.067-3.045-.432-.163-.85.21-.721.637.033.117.206.306 1.04 1.143l.999 1.006H2.706l.986-.99c.541-.54 1.01-1.035 1.04-1.098.159-.322-.11-.734-.479-.734a.669.669 0 0 0-.229.044Z" fill="#fff"/></svg>