<svg width="18" height="18" viewBox="0 0 18 18" fill="none" xmlns="http://www.w3.org/2000/svg"><path d="M4.684.305c-.282.129-.372.324-.372.8v.344l-.69.024c-.532.015-.77.039-1.009.101-.902.239-1.617.817-2.011 1.621-.36.73-.332.176-.332 6.41 0 6.004-.016 5.59.214 6.2.258.695 1.016 1.453 1.711 1.71.61.231.133.215 6.805.215s6.195.016 6.805-.214c.695-.258 1.453-1.016 1.71-1.711.231-.61.215-.196.215-6.2V4.098l-.09-.305a3.174 3.174 0 0 0-1.734-2.035c-.437-.203-.781-.266-1.543-.29l-.668-.015-.015-.406c-.012-.434-.051-.524-.282-.695-.152-.114-.52-.114-.671 0-.23.171-.27.261-.282.703l-.015.406H5.57l-.015-.406c-.012-.438-.051-.532-.274-.7C5.148.258 4.84.23 4.684.305ZM4.312 3.09c0 .324.016.406.09.535a.614.614 0 0 0 1.07 0c.075-.129.09-.21.09-.535v-.38h6.876v.379c0 .324.015.406.09.535a.614.614 0 0 0 1.07 0c.074-.129.09-.21.09-.539v-.387l.636.02c.711.023.977.086 1.332.324.586.39.844.937.844 1.793v.414h-15l.004-.441c0-.282.023-.528.066-.696.137-.523.5-.953 1.004-1.191.34-.164.563-.2 1.223-.207l.515-.004v.379ZM16.5 10.637c0 2.648-.016 4.21-.04 4.343-.097.512-.483 1.04-.933 1.282-.476.254-.097.238-6.527.238s-6.05.016-6.527-.238a2.124 2.124 0 0 1-.754-.77c-.227-.445-.219-.281-.219-4.82V6.5h15v4.137Z" fill="#fff"/><path d="M11.871 8.926c-.043.023-.898.863-1.902 1.867l-1.828 1.82-.965-.965c-.535-.527-1.008-.98-1.055-1.003a.735.735 0 0 0-.258-.043c-.441 0-.746.492-.543.882.047.086.602.672 1.286 1.352 1.02 1.012 1.226 1.203 1.37 1.246.356.102.29.16 2.56-2.105 1.218-1.215 2.097-2.122 2.144-2.211.203-.395-.102-.883-.551-.883a.7.7 0 0 0-.258.043Z" fill="#fff"/></svg>