<svg width="7" height="17" viewBox="0 0 7 17" fill="none" xmlns="http://www.w3.org/2000/svg"><path d="M.19 12.976c.053.09 3.004 3.054 3.09 3.1.11.06.373.04.492-.032.17-.107 3.005-2.965 3.045-3.072.163-.431-.21-.85-.638-.72-.116.033-.305.206-1.145 1.04l-1.003.999V2.706l.986.986c.545.541 1.04 1.01 1.103 1.04.322.159.733-.11.733-.479a.668.668 0 0 0-.043-.229c-.05-.086-3-3.051-3.088-3.098-.106-.06-.378-.043-.494.034-.17.102-3.005 2.965-3.045 3.067-.163.432.21.85.637.721.117-.033.306-.206 1.143-1.04l1.006-.999v11.585l-.99-.986c-.541-.541-1.036-1.01-1.099-1.04-.322-.159-.734.11-.734.479.004.083.02.186.044.229Z" fill="#fff"/></svg>