<svg width="20" height="20" viewBox="0 0 20 20" fill="none" xmlns="http://www.w3.org/2000/svg"><path d="M9.695.082a.62.62 0 0 0-.261.25l-.098.164v1.258c0 1.164-.004 1.262-.067 1.238a37.369 37.369 0 0 1-.847-.469c-1.028-.578-1.008-.57-1.215-.57a.653.653 0 0 0-.672.598c-.027.215.09.5.246.601.059.04.653.38 1.32.758l1.215.688.012 2.097c.008 1.75 0 2.098-.043 2.086-.031-.008-.86-.476-1.84-1.043L5.656 6.703l.012-1.465c.008-.808-.004-1.511-.02-1.566a.714.714 0 0 0-.644-.469.703.703 0 0 0-.57.332c-.098.16-.098.184-.125 1.266a29.222 29.222 0 0 1-.036 1.097c-.007 0-.492-.277-1.074-.613-.996-.574-1.078-.613-1.265-.613a.674.674 0 0 0-.665.824c.043.238.278.422 1.34 1.027.54.313.985.575.985.586 0 .012-.407.258-.903.547-.496.29-.945.578-.996.637a.814.814 0 0 0-.136.258c-.145.488.335.976.816.832.082-.024.695-.371 1.371-.766.676-.398 1.238-.719 1.25-.71.23.116 3.598 2.077 3.598 2.093 0 .016-3.368 1.977-3.598 2.094-.012.008-.574-.313-1.25-.711-.676-.395-1.289-.742-1.371-.766-.48-.144-.961.344-.816.832.023.082.085.2.136.258.051.059.5.348.996.637.496.289.903.535.903.547 0 .011-.442.273-.985.586-1.05.605-1.222.726-1.304.925-.211.5.261 1.043.785.907.086-.024.61-.305 1.164-.625a42.82 42.82 0 0 1 1.02-.582c.003 0 .023.496.035 1.097.027 1.082.027 1.106.125 1.266.285.492 1.035.406 1.214-.137.016-.055.028-.758.02-1.566l-.012-1.465 1.79-1.035a70.7 70.7 0 0 1 1.84-1.043c.042-.012.05.336.042 2.086l-.012 2.097-1.215.688a79.32 79.32 0 0 0-1.32.758c-.156.101-.273.386-.246.601.04.356.313.598.672.598.207 0 .187.008 1.215-.57.43-.243.812-.454.847-.47.063-.023.067.075.067 1.24v1.257l.098.168A.71.71 0 0 0 10 20a.71.71 0 0 0 .566-.328l.098-.168v-1.258c0-1.164.004-1.262.066-1.238.035.015.418.226.848.469 1.027.578 1.008.57 1.215.57.36 0 .633-.242.672-.598.027-.215-.09-.5-.246-.601a79.67 79.67 0 0 0-1.32-.758l-1.215-.688-.012-2.097c-.008-1.75 0-2.098.043-2.086.031.008.86.476 1.84 1.043l1.789 1.035-.012 1.465c-.008.808.004 1.511.02 1.566.09.266.363.465.644.469.215 0 .461-.14.57-.328.094-.157.094-.188.121-1.266.016-.605.036-1.101.04-1.101.007 0 .468.261 1.019.582.555.32 1.078.601 1.164.625.523.136.996-.407.785-.907-.082-.199-.254-.32-1.305-.925-.542-.309-.984-.575-.984-.586 0-.012.406-.258.902-.547.497-.29.946-.578.997-.637a.813.813 0 0 0 .136-.258c.145-.488-.336-.976-.816-.832-.082.024-.695.371-1.371.766-.676.398-1.239.719-1.25.71A205.25 205.25 0 0 1 11.406 10c0-.016 3.367-1.977 3.598-2.094.011-.008.574.313 1.25.711.676.395 1.289.742 1.37.766.481.144.962-.344.817-.832a.813.813 0 0 0-.136-.258c-.051-.059-.5-.348-.997-.637-.496-.289-.902-.535-.902-.547 0-.011.446-.273.989-.586 1.058-.605 1.292-.789 1.335-1.027a.674.674 0 0 0-.664-.824c-.187 0-.27.039-1.265.613-.582.336-1.067.613-1.074.613-.004 0-.024-.496-.036-1.097-.027-1.082-.027-1.106-.125-1.266-.285-.492-1.035-.406-1.215.137-.015.055-.027.758-.019 1.566l.012 1.465-1.79 1.035a71.03 71.03 0 0 1-1.84 1.043c-.042.012-.05-.336-.042-2.086l.011-2.097 1.215-.688a79.478 79.478 0 0 0 1.32-.758c.133-.086.258-.347.258-.535a.743.743 0 0 0-.277-.547c-.172-.125-.515-.152-.703-.058-.074.039-.484.265-.918.511-.43.243-.813.454-.848.47-.062.023-.066-.075-.066-1.24V.497l-.098-.168A.71.71 0 0 0 9.996 0a.894.894 0 0 0-.3.082Z" fill="#fff"/></svg>