<svg width="20" height="20" viewBox="0 0 20 20" fill="none" xmlns="http://www.w3.org/2000/svg"><g clip-path="url(#a)" fill="#fff"><path d="M13.773 3.008c-1.23.14-2.296.574-3.324 1.351a41.2 41.2 0 0 0-1.066.864c-1.059.89-1.625 1.238-2.399 1.472-.554.172-1.062.23-1.789.207C3.81 6.86 2.934 6.504 1.68 5.461c-.535-.441-.637-.5-.899-.5-.445 0-.781.348-.781.8.004.216.133.423.434.688C1.73 7.59 2.77 8.137 4.12 8.383c.305.055.586.07 1.27.07.683 0 .964-.015 1.27-.07a6.335 6.335 0 0 0 2.128-.781c.54-.313.895-.582 1.98-1.5 1.09-.915 1.778-1.282 2.786-1.48.46-.095 1.648-.095 2.11 0 .96.19 1.694.57 2.644 1.362.527.442.539.45.757.496.504.114.989-.332.918-.84-.035-.269-.117-.382-.5-.706-1.304-1.114-2.32-1.637-3.625-1.864-.437-.078-1.632-.113-2.086-.062Z"/><path d="M14.043 7.266c-1.578.109-2.75.632-4.258 1.898-.968.813-1.117.93-1.464 1.164-.895.606-1.743.848-2.93.848-1.496 0-2.399-.352-3.742-1.469-.59-.488-.746-.55-1.118-.441-.324.097-.574.496-.52.832.048.277.145.402.661.828 1.45 1.203 2.606 1.699 4.2 1.804 1.327.09 2.593-.152 3.605-.683.695-.367 1.062-.637 2.32-1.692 1.395-1.171 2.29-1.53 3.813-1.53 1.496 0 2.398.35 3.742 1.468.59.488.746.55 1.117.441.324-.097.574-.496.52-.832-.044-.261-.149-.402-.567-.754-1.539-1.285-2.644-1.77-4.32-1.882-.305-.02-.567-.036-.59-.032-.02 0-.23.016-.469.032Z"/><path d="M13.867 11.547c-1.515.18-2.652.683-3.887 1.723-1.058.89-1.335 1.113-1.625 1.308-.613.41-1.21.664-1.91.8-.46.095-1.648.095-2.11 0-.96-.19-1.694-.57-2.644-1.362-.535-.446-.546-.454-.773-.496-.508-.094-.973.335-.902.84.035.269.117.382.5.706 1.308 1.118 2.304 1.63 3.644 1.871.55.098 1.91.098 2.461 0a6.364 6.364 0 0 0 2.129-.765c.5-.29.93-.61 1.867-1.395 1.063-.894 1.633-1.242 2.399-1.472.601-.18.757-.2 1.593-.2s.993.02 1.594.2c.695.207 1.317.57 2.117 1.234.535.441.637.5.899.5.445 0 .781-.348.781-.8-.004-.212-.137-.423-.434-.688-1.27-1.121-2.363-1.696-3.687-1.934-.336-.058-1.695-.105-2.012-.07Z"/></g><defs><clipPath id="a"><path fill="#fff" d="M0 0h20v20H0z"/></clipPath></defs></svg>