<svg width="6" height="8" viewBox="0 0 6 8" fill="none" xmlns="http://www.w3.org/2000/svg"><path d="M1.476.172c-.063.024-.11.062-.246.193C1.022.566.994.615.99.77a.377.377 0 0 0 .026.171c.018.04.468.513 1.4 1.471l1.376 1.412L2.38 5.202C1.28 6.272.96 6.592.939 6.642a.371.371 0 0 0-.032.157c-.002.147.038.219.234.418.138.14.179.172.247.199a.375.375 0 0 0 .291.005c.08-.028.156-.1 1.777-1.68 1.875-1.826 1.768-1.71 1.77-1.899.002-.188.106-.07-1.72-1.943C1.922.277 1.85.204 1.771.175a.399.399 0 0 0-.296-.003Z" fill="#fff"/></svg>