<svg width="13" height="9" viewBox="0 0 13 9" fill="none" xmlns="http://www.w3.org/2000/svg"><path d="M12.944 1.555c-.043-.112-.112-.196-.348-.434-.363-.366-.45-.414-.726-.417a.683.683 0 0 0-.305.048c-.068.033-.901.846-2.584 2.527L6.5 5.757l-2.483-2.48C2.087 1.346 1.51.782 1.422.744a.66.66 0 0 0-.28-.054c-.261 0-.388.074-.738.427-.247.249-.302.322-.348.444a.667.667 0 0 0-.003.518c.051.142.18.274 3.03 3.123C6.372 8.496 6.164 8.31 6.5 8.31c.335 0 .127.187 3.418-3.106 2.85-2.851 2.978-2.98 3.029-3.123a.71.71 0 0 0-.003-.525Z" fill="#fff"/></svg>