<svg width="5" height="8" viewBox="0 0 5 8" fill="none" xmlns="http://www.w3.org/2000/svg"><path d="M4.344.295c.063.025.11.064.242.198.203.207.229.256.228.411a.377.377 0 0 1-.029.171c-.019.039-.481.5-1.438 1.435l-1.41 1.376L3.312 5.3c1.07 1.098 1.383 1.426 1.404 1.476.02.043.028.096.028.158-.002.147-.045.217-.245.412-.142.136-.184.167-.253.192a.375.375 0 0 1-.29-.002c-.08-.03-.154-.103-1.734-1.725C.396 3.938.5 4.056.503 3.868.504 3.68.396 3.795 2.271 1.97 3.895.387 3.968.317 4.049.29a.399.399 0 0 1 .295.005Z" fill="#fff"/></svg>