<svg width="95" height="95" viewBox="0 0 95 95" fill="none" xmlns="http://www.w3.org/2000/svg"><path d="M45.774.186c-.834.222-2.06.816-2.838 1.41-.706.556-1.967 1.002-2.784 1.002-.334 0-1.169-.13-1.874-.297-1.818-.427-3.32-.26-5.01.575-1.335.65-2.059 1.336-3.45 3.228-.743 1.04-1.912 1.652-3.582 1.893-3.21.445-5.789 2.765-6.401 5.733-.408 2.004-1.28 3.136-3.117 4.064-1.15.594-2.45 1.967-3.099 3.265-.52 1.077-.538 1.188-.556 3.99 0 3.21-.093 3.525-1.207 4.861-2.3 2.746-2.579 5.567-.89 8.98.909 1.837 1.002 2.97.37 4.788-1.057 3.006-.11 6.067 2.599 8.442 1.41 1.243 1.744 1.967 2.003 4.36.372 3.582 2.023 5.604 5.567 6.81 1.113.39 2.245 1.169 2.245 1.54 0 .13-1.763 4.49-3.915 9.686-3.692 8.906-3.915 9.5-3.84 10.409.11 1.206.816 2.19 1.966 2.69 1.113.501 1.484.427 6.605-1.15 3.192-.984 4.305-1.262 4.49-1.095.13.111 1.17 1.967 2.32 4.12 1.132 2.17 2.282 4.174 2.56 4.47 1.28 1.393 3.396 1.374 4.713-.018.353-.39 1.8-3.655 4.565-10.335 2.245-5.38 4.119-9.834 4.175-9.89a.14.14 0 0 1 .222 0c.056.056 1.93 4.51 4.157 9.89 2.783 6.699 4.23 9.946 4.583 10.335 1.317 1.392 3.432 1.41 4.712.019.279-.297 1.43-2.3 2.561-4.472 1.15-2.152 2.19-4.008 2.338-4.138.185-.148 1.243.112 4.49 1.114 5.121 1.577 5.474 1.651 6.587 1.15 1.15-.5 1.856-1.484 1.967-2.69.074-.91-.148-1.503-3.84-10.41-2.153-5.195-3.916-9.555-3.916-9.685 0-.371 1.132-1.15 2.245-1.54 1.614-.557 2.56-1.095 3.488-2.041 1.3-1.28 1.856-2.56 2.079-4.769.26-2.393.593-3.117 2.004-4.36 2.746-2.393 3.6-5.232 2.579-8.442-.613-1.967-.538-2.932.408-4.806 1.67-3.395 1.391-6.234-.91-8.962-1.15-1.354-1.335-2.097-1.206-4.75.112-1.985.075-2.375-.26-3.34-.5-1.391-1.632-2.876-2.708-3.562A84.404 84.404 0 0 0 77.28 17.2c-1.02-.65-1.688-1.725-2.115-3.432-.78-3.173-3.173-5.326-6.401-5.771-1.652-.241-2.84-.853-3.581-1.893-1.392-1.892-2.116-2.579-3.452-3.228-1.688-.835-3.19-1.002-5.01-.575-.704.167-1.54.297-1.873.297-.835 0-2.078-.464-2.84-1.04C50.822.65 49.43.149 47.909.075c-.78-.037-1.744.019-2.134.112Zm3.229 2.875c.427.167 1.076.501 1.41.761 1.837 1.41 3.915 1.8 6.55 1.262 1.429-.278 1.818-.297 2.56-.093 1.262.334 2.153.984 2.988 2.208 1.28 1.911 2.82 2.95 4.935 3.359 3.451.686 4.38 1.447 5.103 4.193.668 2.523 1.911 4.175 3.915 5.195 1.095.575 1.985 1.466 2.412 2.43.297.632.334 1.188.297 3.433-.037 2.487 0 2.747.427 3.693.24.556.797 1.447 1.224 1.967 1.243 1.521 1.448 2.04 1.448 3.506 0 1.15-.075 1.466-.78 2.784-1.187 2.32-1.354 4.249-.52 6.568.409 1.095.372 2.71-.055 3.655-.204.427-.705 1.095-1.15 1.485-2.487 2.226-3.025 3.228-3.396 6.197-.371 2.932-1.224 4.175-3.358 4.824-2.32.705-3.99 2.134-4.973 4.268-.798 1.688-1.28 2.263-2.394 2.876-.853.464-1.15.52-3.005.556-2.858.056-3.897.464-5.956 2.32-.687.63-1.54 1.261-1.874 1.41-1.058.445-2.542.334-4.12-.334-1.261-.52-1.632-.594-3.191-.594s-1.93.074-3.191.594c-1.578.668-3.062.78-4.12.334-.334-.149-1.187-.78-1.873-1.41-2.06-1.856-3.1-2.264-5.957-2.32-1.855-.037-2.152-.092-3.006-.556-1.113-.613-1.595-1.188-2.393-2.876-.983-2.134-2.653-3.563-4.973-4.268-2.133-.65-2.987-1.874-3.34-4.805-.37-2.97-.909-3.953-3.414-6.235-.445-.408-.964-1.076-1.15-1.484-.427-.928-.445-2.56-.056-3.637.835-2.32.668-4.249-.52-6.568-.704-1.318-.778-1.633-.778-2.784 0-1.465.204-1.985 1.447-3.506.427-.52.983-1.41 1.224-1.967.427-.946.464-1.206.427-3.692-.037-2.246 0-2.802.297-3.433.427-.965 1.317-1.856 2.412-2.43 1.985-1.021 3.247-2.673 3.915-5.177.427-1.578.78-2.208 1.707-2.988.742-.63 1.188-.798 2.932-1.095 2.412-.426 4.045-1.484 5.4-3.488.834-1.224 1.725-1.874 2.987-2.208.742-.204 1.131-.185 2.56.093 2.635.538 4.713.148 6.55-1.262 1.299-1.002 2.932-1.28 4.416-.76ZM25.847 68.355c.185.483 1.966 1.745 3.043 2.153.835.334 1.521.427 3.117.445 2.412.056 3.006.278 4.768 1.911.613.557 1.578 1.243 2.171 1.522.91.427 1.28.482 2.95.482 1.615 0 1.874.037 1.8.278-.65 1.745-6.902 16.681-7.069 16.867-.13.13-.353.204-.501.148-.148-.056-1.206-1.911-2.375-4.138-1.169-2.208-2.393-4.304-2.709-4.638-.687-.687-1.855-1.095-2.728-.928-.334.056-2.486.705-4.824 1.429-2.338.705-4.36 1.261-4.508 1.187-.186-.055-.26-.26-.205-.52.13-.63 6.717-16.457 6.847-16.457.074 0 .167.111.223.26Zm46.98 7.756c1.819 4.416 3.359 8.22 3.396 8.443.055.26-.019.463-.186.52-.167.073-2.17-.483-4.49-1.188-2.32-.724-4.49-1.355-4.824-1.41-.91-.186-2.078.204-2.765.909-.315.334-1.559 2.43-2.709 4.657-1.169 2.208-2.245 4.082-2.394 4.12-.13.055-.352-.02-.482-.15-.167-.185-6.42-15.121-7.07-16.866-.073-.24.186-.278 1.8-.278 1.689 0 2.042-.055 3.006-.52.594-.278 1.596-.983 2.245-1.577 1.67-1.558 2.19-1.762 4.64-1.818 1.595-.019 2.281-.111 3.116-.445 1.077-.408 2.858-1.67 3.043-2.153.056-.148.149-.26.223-.26.074 0 1.614 3.619 3.451 8.016Z" fill="#fff"/><path d="M43.047 10.094c-8.628 1.54-15.716 6.586-19.983 14.213-1.43 2.523-2.988 7.403-3.08 9.592-.038.872.018 1.058.408 1.373.556.446 1.41.446 1.837.019.222-.223.463-.983.668-2.097 1.837-10.094 9.221-17.738 19.5-20.132 1.188-.278 2.209-.352 5.196-.352 3.414 0 3.86.037 5.715.52 7.329 1.836 13.285 6.586 16.625 13.266.835 1.651 1.8 4.639 2.17 6.698.205 1.113.446 1.874.669 2.097.426.427 1.28.427 1.837-.019.538-.426.538-1.169.074-3.414-2.227-10.743-10.632-19.13-21.617-21.56-1.892-.427-8.09-.538-10.02-.204Z" fill="#fff"/><path d="M46.665 17.627c-1.113.334-1.466.965-3.432 6.401-1.04 2.858-1.949 5.27-2.023 5.344-.074.074-2.523.223-5.418.334-2.895.093-5.548.223-5.882.278-.853.13-1.837 1.058-2.096 1.967-.168.612-.13.91.11 1.577.28.724.799 1.188 4.844 4.342 2.486 1.948 4.527 3.6 4.527 3.655 0 .075-.668 2.468-1.484 5.325-.817 2.858-1.485 5.53-1.485 5.938 0 1.726 1.726 2.987 3.322 2.45.37-.13 2.708-1.596 5.158-3.248 2.468-1.651 4.583-3.006 4.694-3.006.111 0 2.227 1.355 4.694 3.006 2.45 1.652 4.787 3.117 5.159 3.247 1.595.538 3.32-.723 3.32-2.449 0-.408-.667-3.08-1.483-5.938-.817-2.857-1.485-5.25-1.485-5.306 0-.074 2.041-1.726 4.509-3.655 4.806-3.748 5.065-4.027 5.028-5.474-.037-.78-.445-1.466-1.261-2.06-.464-.352-.891-.408-4.62-.538-2.264-.074-4.918-.204-5.882-.278l-1.745-.13-1.874-5.121c-1.039-2.82-2.022-5.344-2.19-5.604-.63-.964-1.873-1.391-3.005-1.057Zm2.783 8.183c1.002 2.764 1.986 5.232 2.19 5.473.705.91 1.057.984 6.828 1.188 3.006.111 5.53.222 5.622.26.093.018-1.8 1.577-4.212 3.45-2.393 1.893-4.509 3.656-4.657 3.934-.167.26-.297.798-.297 1.206 0 .39.65 3.006 1.466 5.808.798 2.802 1.428 5.121 1.41 5.158-.037.037-2.078-1.28-4.546-2.932-2.486-1.67-4.787-3.098-5.121-3.21a2.031 2.031 0 0 0-1.243 0c-.334.093-2.635 1.54-5.121 3.192-2.468 1.651-4.528 2.987-4.565 2.95-.018-.037.613-2.356 1.41-5.158.817-2.802 1.466-5.437 1.466-5.845 0-.408-.148-.965-.334-1.243-.185-.278-2.282-2.022-4.657-3.896-2.375-1.856-4.25-3.396-4.175-3.433.093-.019 2.616-.13 5.622-.241 5.77-.204 6.123-.279 6.828-1.188.204-.241 1.188-2.709 2.19-5.474 1.002-2.764 1.874-5.028 1.948-5.028.074 0 .946 2.264 1.948 5.029Z" fill="#F29D39"/><path d="M19.963 36.965c-.612.538-.63 1.243-.074 3.767 1.188 5.288 3.563 9.555 7.515 13.526 4.1 4.082 8.516 6.476 14.287 7.719 2.69.575 7.923.575 10.613 0 5.79-1.243 10.168-3.618 14.287-7.719 3.952-3.952 6.272-8.127 7.478-13.47.65-2.895.65-3.1.037-3.73-.65-.65-1.132-.687-1.763-.13-.39.353-.52.76-.76 2.152-.798 4.695-3.136 9.296-6.55 12.877-3.414 3.563-7.7 5.975-12.71 7.144-1.819.427-2.468.5-5.325.5-2.858 0-3.507-.073-5.326-.5-4.694-1.095-8.59-3.173-12.005-6.439-3.71-3.544-6.438-8.646-7.273-13.619-.223-1.354-.371-1.762-.742-2.115-.594-.52-1.04-.52-1.689.037Z" fill="#fff"/></svg>