<svg width="42" height="42" viewBox="0 0 42 42" fill="none" xmlns="http://www.w3.org/2000/svg"><circle cx="21" cy="21" r="21" fill="#F29D39"/><path d="M13.998 15.912c-.495.09-.925.504-1.021.987-.043.21-.043 8.928 0 9.144.099.492.526.893 1.051.986.226.041 13.446.041 13.672 0 .525-.093.952-.494 1.051-.986.043-.216.043-8.931 0-9.147-.099-.492-.526-.894-1.051-.987-.208-.038-13.501-.035-13.702.003Zm13.528.606c.06.02-.65.643-4.692 4.101-1.627 1.395-1.568 1.348-1.707 1.406a.694.694 0 0 1-.529 0c-.117-.05-1.571-1.28-5.035-4.264-1.17-1.008-1.408-1.226-1.361-1.243.077-.03 13.247-.03 13.324 0Zm-11.283 2.67a282.617 282.617 0 0 1 2.604 2.25c.003.014-.281.264-.634.558-.89.743-1.982 1.689-3.359 2.905a59.748 59.748 0 0 1-1.194 1.046c-.015.005-.034-.02-.046-.059-.025-.087-.025-8.721 0-8.84a.434.434 0 0 1 .028-.09c.006 0 1.175 1 2.601 2.23Zm11.887 2.267c0 2.401-.007 4.396-.016 4.433-.012.038-.03.064-.046.059a62.09 62.09 0 0 1-1.194-1.046 157.485 157.485 0 0 0-3.36-2.905c-.352-.294-.636-.544-.633-.559.006-.011 1.178-1.027 2.607-2.256 2.36-2.029 2.598-2.224 2.617-2.163.012.038.021 2.035.024 4.437Zm-8.389.73c.53.446.86.571 1.318.504.303-.044.526-.166.93-.506.316-.268.372-.303.418-.271.372.274 2.088 1.744 3.864 3.31 1.175 1.036 1.33 1.184 1.268 1.202-.04.009-3.044.018-6.675.018s-6.635-.01-6.675-.018c-.062-.017.096-.166 1.268-1.202a267.3 267.3 0 0 1 1.912-1.674c.594-.515 1.976-1.671 1.995-1.671.006 0 .176.137.377.309Z" fill="#fff"/></svg>