<svg width="42" height="42" viewBox="0 0 42 42" fill="none" xmlns="http://www.w3.org/2000/svg"><circle cx="21" cy="21" r="21" fill="#F29D39"/><g clip-path="url(#a)"><path d="M15.863 13.047c-.253.065-.513.209-.778.437-.294.253-1.347 1.325-1.52 1.547-.696.89-.709 2.275-.034 4.062.822 2.185 2.363 4.397 4.313 6.194 2.687 2.478 6.287 4.082 8.14 3.632.275-.066.732-.279.941-.438.213-.16 1.625-1.61 1.756-1.8.244-.353.338-.825.244-1.225-.106-.447-.14-.488-1.5-1.85-1.372-1.372-1.416-1.406-1.869-1.5-.359-.075-.725-.01-1.078.194-.081.05-.469.403-.86.79l-.708.7-.229-.118c-.559-.291-.972-.57-1.587-1.075a14.86 14.86 0 0 1-2-2.066c-.353-.462-.872-1.316-.875-1.431 0-.022.244-.278.54-.569.625-.61.872-.894 1.013-1.162.175-.341.21-.772.088-1.129-.122-.362-.241-.5-1.435-1.696-1.181-1.182-1.362-1.338-1.7-1.454a1.754 1.754 0 0 0-.862-.043Zm.725.878c.087.05.587.522 1.259 1.197 1.216 1.218 1.262 1.275 1.26 1.596 0 .285-.076.385-.891 1.2-.413.41-.772.788-.797.841-.038.066-.047.156-.038.31.01.187.035.259.225.637.432.856 1 1.61 1.941 2.572.934.956 1.866 1.669 2.825 2.162.34.175.406.2.563.197a.676.676 0 0 0 .284-.056c.06-.031.447-.394.86-.803.53-.528.79-.763.89-.806a.75.75 0 0 1 .603 0c.188.093 2.397 2.3 2.494 2.493a.665.665 0 0 1 .075.332c0 .322-.066.409-.953 1.3-.878.88-.96.94-1.428 1.046-.454.1-1.213.02-1.982-.209-1.172-.347-2.747-1.178-4.043-2.134-2.497-1.838-4.641-4.647-5.532-7.244-.425-1.234-.472-2.119-.147-2.775.1-.21.194-.316.844-.975.4-.406.784-.775.85-.822.281-.194.569-.216.838-.06Z" fill="#fff"/></g><defs><clipPath id="a"><path fill="#fff" transform="translate(13 13)" d="M0 0h16v16H0z"/></clipPath></defs></svg>