<svg width="42" height="42" viewBox="0 0 42 42" fill="none" xmlns="http://www.w3.org/2000/svg"><circle cx="21" cy="21" r="21" fill="#3A8CAF"/><path d="m26.403 16.169-6.533 2.156c-3.302 1.087-6.1 2.01-6.217 2.054a.941.941 0 0 0-.557.474c-.11.226-.114.566-.011.768.085.167.249.34.39.413.058.03.828.372 1.71.759.882.386 1.606.706 1.612.712.005.005.234 1.048.506 2.317.276 1.268.522 2.355.551 2.414.111.229.378.305.61.173a55.47 55.47 0 0 0 1.353-.996l1.236-.926 1.43 1.169c.785.645 1.494 1.204 1.573 1.248a.906.906 0 0 0 .677.056c.237-.068.507-.334.58-.572.027-.088.645-2.692 1.371-5.786 1.45-6.173 1.374-5.792 1.219-6.096a.88.88 0 0 0-.767-.501c-.188-.01-.25.003-.733.164Zm.703.785-1.321 5.616a661.226 661.226 0 0 1-1.316 5.549c-.008.009-.038-.006-.064-.03-.03-.023-1.04-.852-2.25-1.84-1.207-.987-2.209-1.804-2.22-1.816-.012-.011 1.007-1.098 2.27-2.417 1.263-1.318 2.323-2.443 2.358-2.502a.45.45 0 0 0 .068-.24c0-.117-.018-.155-.112-.26-.105-.12-.123-.13-.287-.138l-.173-.012-3.448 1.916-3.445 1.916-1.647-.718c-.902-.395-1.632-.73-1.617-.744.024-.023 13.12-4.354 13.187-4.356.029-.003.032.017.017.076Zm-5.288 4.18c0 .006-.653.698-1.453 1.533s-1.474 1.555-1.494 1.605c-.02.047-.155.49-.293.982-.14.492-.264.902-.276.917-.017.02-.591-2.587-.597-2.713-.003-.038.495-.328 2.048-1.193 1.128-.627 2.053-1.142 2.06-1.142.002 0 .005.006.005.011ZM19.966 25.6c.2.161.36.302.36.314 0 .03-1.277.981-1.285.958-.003-.012.073-.3.17-.636.316-1.096.29-1.022.345-.973.027.024.211.173.41.337Z" fill="#fff" fill-opacity=".84"/></svg>