<svg width="42" height="42" viewBox="0 0 42 42" fill="none" xmlns="http://www.w3.org/2000/svg"><circle cx="21" cy="21" r="21" fill="#3FB452"/><g clip-path="url(#a)" fill="#fff" fill-opacity=".84"><path d="M26.65 15.35A7.943 7.943 0 0 0 21 13c-4.405 0-8 3.595-8 8 0 1.303.32 2.59.927 3.734l-.913 3.684a.469.469 0 0 0 .568.568l3.684-.913a7.977 7.977 0 0 0 9.384-1.423A7.944 7.944 0 0 0 29 21a7.943 7.943 0 0 0-2.35-5.65ZM21 28.063a7.034 7.034 0 0 1-3.44-.898.47.47 0 0 0-.343-.046l-3.106.77.77-3.107a.47.47 0 0 0-.046-.342 7.032 7.032 0 0 1-.898-3.44A7.07 7.07 0 0 1 21 13.937 7.07 7.07 0 0 1 28.063 21 7.07 7.07 0 0 1 21 28.063Z"/><path d="M25.23 22.423c-.31-.31-.652-.624-1.047-.815-.59-.284-1.154-.203-1.586.23-.197.197-.468.585-.624.776-.402-.067-1.206-.745-1.524-1.063-.318-.318-.995-1.122-1.062-1.523.19-.155.579-.427.776-.624.432-.433.514-.996.23-1.586-.191-.396-.505-.738-.816-1.048-.632-.646-1.608-.694-2.45.149-.63.629-1.19 1.796-.288 3.78.534 1.174 1.395 2.212 1.819 2.64l.003.004c.429.424 1.467 1.285 2.64 1.818 1.327.603 2.747.746 3.781-.287.855-.855.783-1.83.149-2.45Zm-.81 1.788c-.611.61-1.53.643-2.73.097-1.054-.48-2.009-1.275-2.367-1.63-.356-.359-1.15-1.313-1.63-2.367-.546-1.2-.514-2.119.097-2.73.356-.356.766-.514 1.118-.155l.006.007c.833.832.773 1.12.586 1.308-.167.167-.66.501-.819.66-.373.374-.304.953.207 1.72.305.458.707.903.897 1.093l.001.001c.19.19.635.593 1.093.898.768.51 1.347.58 1.72.206.16-.159.494-.651.66-.818.127-.127.253-.175.517-.048.306.148.634.476.792.633l.007.007c.361.354.2.761-.156 1.118Z"/></g><defs><clipPath id="a"><path fill="#fff" transform="translate(13 13)" d="M0 0h16v16H0z"/></clipPath></defs></svg>