<svg width="138" height="76" viewBox="0 0 138 76" fill="none" xmlns="http://www.w3.org/2000/svg"><path d="M120.312 32.473v42.52m-118.56.001V49.799m11.263-19.386-.715.433c-6.295 3.9-10.265 10.759-10.535 18.122l-.013.831M13.028 30.4l2.74-1.566L55.364 6.122l2.74-1.578m22.538.012-.74-.41a22.717 22.717 0 0 0-21.07 0l-.74.41m22.55-.012L125.72 30.4m11.262 19.4-.012-.832c-.27-7.364-4.24-14.222-10.536-18.122l-.715-.433M136.982 49.8v3.144" stroke="#B3B3B3" stroke-width="1.52" stroke-miterlimit="10" stroke-linecap="round" stroke-linejoin="round"/><path d="m15.768 28.834 5.08 2.253.57-5.506 5.08 2.265.581-5.506 5.08 2.253.57-5.494 5.08 2.253.582-5.495 5.08 2.254.57-5.507 5.091 2.253.57-5.494 5.08 2.253.582-5.494m14.003-4.579L66.276 6.93l-4.474-4.084-1.443 5.735-4.995-2.458m67.615 22.711-5.08 2.253-.582-5.506-5.08 2.265-.57-5.506-5.092 2.253-.57-5.494-5.079 2.253-.57-5.495-5.092 2.254-.57-5.507-5.08 2.253-.582-5.494-5.08 2.253-.57-5.494" stroke="#B3B3B3" stroke-width="1.52" stroke-miterlimit="10" stroke-linecap="round" stroke-linejoin="round"/><path d="M69.367 1.543 72.46 6.93l4.473-4.084 1.455 5.735 4.995-2.458M4.771 38.606l6.244.024-1.333-5.892 5.734 1.627.352-5.53M4.771 38.606l3.152 5.35-5.807 1.807 4.28 4.12-4.644 3.061h4.51" stroke="#B3B3B3" stroke-width="1.52" stroke-miterlimit="10" stroke-linecap="round" stroke-linejoin="round"/><path d="m2.65 74.994 3.613-6.784V52.39m11.263-19.387-.715.434C10.514 37.339 6.546 44.193 6.275 51.559l-.012.83m11.262-19.398L58.104 9.713m22.538.012-.74-.41a22.717 22.717 0 0 0-21.07 0l-.74.41m22.55-.012 40.566 23.278m11.276 19.399-.012-.831c-.27-7.364-4.241-14.222-10.536-18.122l-.715-.434m11.263 19.387v.554h4.498" stroke="#B3B3B3" stroke-width="1.52" stroke-miterlimit="10" stroke-linecap="round" stroke-linejoin="round"/><path d="m133.963 38.606-6.232.024 1.322-5.892-5.735 1.627-.339-5.53m10.984 9.771-3.14 5.35 5.795 1.807-4.28 4.12 4.644 3.061M6.263 68.21h-4.51m135.229-15.266v22.05h-.897l-3.601-6.784V52.944m0 15.266h4.498" stroke="#B3B3B3" stroke-width="1.52" stroke-miterlimit="10" stroke-linecap="round" stroke-linejoin="round"/><path d="m9.281 41.076-.06.012-.036.036-.013.06.013.049.036.048.06.012.049-.012.049-.048.012-.049-.012-.06-.049-.036-.049-.012Zm0 .109v-.013m-4.51-2.675-.06.013-.037.036-.012.06.012.048.037.048.06.012.049-.012.048-.048.012-.048-.012-.06-.048-.036-.049-.013Zm0 .109v-.012" stroke="#B3B3B3" stroke-width=".288" stroke-miterlimit="10" stroke-linecap="round" stroke-linejoin="round"/><path d="m4.771 38.606 4.51 2.578m120.184 0 4.498-2.578M1.752 52.944l4.51 5.097-4.51 5.085 4.51 5.084m130.72-15.266-4.498 5.097 4.498 5.085-4.498 5.084" stroke="#B3B3B3" stroke-width=".72" stroke-miterlimit="10" stroke-linecap="round" stroke-linejoin="round"/><path d="M135.697 74.27H80.86m-77.822 0h54.836" stroke="#B3B3B3" stroke-width="1.52" stroke-miterlimit="10" stroke-linecap="round" stroke-linejoin="round"/><path d="M57.873 49.583H80.86" stroke="#B3B3B3" stroke-width="1.92" stroke-miterlimit="10" stroke-linecap="round" stroke-linejoin="round"/><path d="M58.104 49.8v25.194h22.538V49.799H58.104Z" stroke="#B3B3B3" stroke-width="1.52" stroke-miterlimit="10" stroke-linecap="round" stroke-linejoin="round"/><path d="M69.367 49.8v25.194h5.638V63.8h-5.638v11.194M6.263 64.752h51.61m22.987 0h51.624M6.263 55.233h51.61m22.987 0h51.624M7.28 45.715h124.173m-11.141-9.519H18.029m10.505-9.519H110.2m-65.069-9.518h48.484M57.873 9.845v65.149M38.148 21.16v53.834m-20.119-42.28v42.22M80.86 9.845v65.149m19.726-53.834v53.834" stroke="#B3B3B3" stroke-width="1.52" stroke-miterlimit="10" stroke-linecap="round" stroke-linejoin="round"/><path d="m9.281 41.076-.06.012-.036.036-.013.06.013.049.036.048.06.012.049-.012.049-.048.012-.049-.012-.06-.049-.036-.049-.012Zm0 .109v-.013m-4.51-2.675-.06.013-.037.036-.012.06.012.048.037.048.06.012.049-.012.048-.048.012-.048-.012-.06-.048-.036-.049-.013Zm0 .109v-.012" stroke="#B3B3B3" stroke-width=".288" stroke-miterlimit="10" stroke-linecap="round" stroke-linejoin="round"/><path d="m129.465 41.184 4.498-2.578m3.019 14.338-4.498 5.097 4.498 5.085-4.498 5.084" stroke="#B3B3B3" stroke-width=".72" stroke-miterlimit="10" stroke-linecap="round" stroke-linejoin="round"/><path d="M136.533 75.068H80.86m-79.108.057h56.122M69.367 49.8v25.194M6.263 64.752h51.61m22.987 0h51.624M28.534 26.677H110.2M80.642 9.713V9.7m13.518 7.772v-.012m13.53 7.772v-.012m13.518 7.771v-.012m8.257 8.206v-.013m3.019 11.772v-.012m4.498 21.508v-.013m-4.498-10.277v-.012M9.281 41.185v-.013M6.263 52.944v-.012M1.752 74.44v-.013M6.263 64.15v-.012" stroke="#B3B3B3" stroke-width="1.52" stroke-miterlimit="10" stroke-linecap="round" stroke-linejoin="round"/><path d="m9.281 41.076-.06.012-.036.036-.013.06.013.049.036.048.06.012.049-.012.049-.048.012-.049-.012-.06-.049-.036-.049-.012Zm0 .109v-.013m-4.51-2.675-.06.013-.037.036-.012.06.012.048.037.048.06.012.049-.012.048-.048.012-.048-.012-.06-.048-.036-.049-.013Zm0 .109v-.012" stroke="#B3B3B3" stroke-width=".288" stroke-miterlimit="10" stroke-linecap="round" stroke-linejoin="round"/><path d="m129.465 41.184 4.498-2.578m3.019 14.338-4.498 5.097 4.498 5.085-4.498 5.084" stroke="#B3B3B3" stroke-width=".72" stroke-miterlimit="10" stroke-linecap="round" stroke-linejoin="round"/><path d="m9.281 41.076-.06.012-.036.036-.013.06.013.049.036.048.06.012.049-.012.049-.048.012-.049-.012-.06-.049-.036-.049-.012Zm0 .109v-.013m-4.51-2.675-.06.013-.037.036-.012.06.012.048.037.048.06.012.049-.012.048-.048.012-.048-.012-.06-.048-.036-.049-.013Zm0 .109v-.012" stroke="#B3B3B3" stroke-width=".288" stroke-miterlimit="10" stroke-linecap="round" stroke-linejoin="round"/><path d="m129.465 41.184 4.498-2.578m3.019 14.338-4.498 5.097 4.498 5.085-4.498 5.084" stroke="#B3B3B3" stroke-width=".72" stroke-miterlimit="10" stroke-linecap="round" stroke-linejoin="round"/><path d="m9.281 41.076-.06.012-.036.036-.013.06.013.049.036.048.06.012.049-.012.049-.048.012-.049-.012-.06-.049-.036-.049-.012Zm0 .109v-.013m-4.51-2.675-.06.013-.037.036-.012.06.012.048.037.048.06.012.049-.012.048-.048.012-.048-.012-.06-.048-.036-.049-.013Zm0 .109v-.012" stroke="#B3B3B3" stroke-width=".288" stroke-miterlimit="10" stroke-linecap="round" stroke-linejoin="round"/><path d="m129.465 41.184 4.498-2.578m3.019 14.338-4.498 5.097 4.498 5.085-4.498 5.084" stroke="#B3B3B3" stroke-width=".72" stroke-miterlimit="10" stroke-linecap="round" stroke-linejoin="round"/><path d="m9.281 41.076-.06.012-.036.036-.013.06.013.049.036.048.06.012.049-.012.049-.048.012-.049-.012-.06-.049-.036-.049-.012Zm0 .109v-.013m-4.51-2.675-.06.013-.037.036-.012.06.012.048.037.048.06.012.049-.012.048-.048.012-.048-.012-.06-.048-.036-.049-.013Zm0 .109v-.012" stroke="#B3B3B3" stroke-width=".288" stroke-miterlimit="10" stroke-linecap="round" stroke-linejoin="round"/><path d="m129.465 41.184 4.498-2.578m3.019 14.338-4.498 5.097 4.498 5.085-4.498 5.084" stroke="#B3B3B3" stroke-width=".72" stroke-miterlimit="10" stroke-linecap="round" stroke-linejoin="round"/><path d="m9.281 41.076-.06.012-.036.036-.013.06.013.049.036.048.06.012.049-.012.049-.048.012-.049-.012-.06-.049-.036-.049-.012Zm0 .109v-.013m-4.51-2.675-.06.013-.037.036-.012.06.012.048.037.048.06.012.049-.012.048-.048.012-.048-.012-.06-.048-.036-.049-.013Zm0 .109v-.012" stroke="#B3B3B3" stroke-width=".288" stroke-miterlimit="10" stroke-linecap="round" stroke-linejoin="round"/><path d="m129.465 41.184 4.498-2.578m3.019 14.338-4.498 5.097 4.498 5.085-4.498 5.084" stroke="#B3B3B3" stroke-width=".72" stroke-miterlimit="10" stroke-linecap="round" stroke-linejoin="round"/><path d="m9.281 41.076-.06.012-.036.036-.013.06.013.049.036.048.06.012.049-.012.049-.048.012-.049-.012-.06-.049-.036-.049-.012Zm0 .109v-.013m-4.51-2.675-.06.013-.037.036-.012.06.012.048.037.048.06.012.049-.012.048-.048.012-.048-.012-.06-.048-.036-.049-.013Zm0 .109v-.012" stroke="#B3B3B3" stroke-width=".288" stroke-miterlimit="10" stroke-linecap="round" stroke-linejoin="round"/><path d="m129.465 41.184 4.498-2.578m3.019 14.338-4.498 5.097 4.498 5.085-4.498 5.084" stroke="#B3B3B3" stroke-width=".72" stroke-miterlimit="10" stroke-linecap="round" stroke-linejoin="round"/><path d="m9.281 41.076-.06.012-.036.036-.013.06.013.049.036.048.06.012.049-.012.049-.048.012-.049-.012-.06-.049-.036-.049-.012Zm0 .109v-.013m-4.51-2.675-.06.013-.037.036-.012.06.012.048.037.048.06.012.049-.012.048-.048.012-.048-.012-.06-.048-.036-.049-.013Zm0 .109v-.012" stroke="#B3B3B3" stroke-width=".288" stroke-miterlimit="10" stroke-linecap="round" stroke-linejoin="round"/><path d="m129.465 41.184 4.498-2.578m3.019 14.338-4.498 5.097 4.498 5.085-4.498 5.084" stroke="#B3B3B3" stroke-width=".72" stroke-miterlimit="10" stroke-linecap="round" stroke-linejoin="round"/></svg>