<svg width="138" height="76" viewBox="0 0 138 76" fill="none" xmlns="http://www.w3.org/2000/svg">
<path d="M120.312 32.473V74.9938" stroke="#B3B3B3" stroke-width="1.52013" stroke-miterlimit="10" stroke-linecap="round" stroke-linejoin="round"/>
<path d="M1.75244 74.9937V49.7994" stroke="#B3B3B3" stroke-width="1.52013" stroke-miterlimit="10" stroke-linecap="round" stroke-linejoin="round"/>
<path d="M13.0155 30.4127L12.3002 30.8464C6.00473 34.7462 2.03454 41.6045 1.7646 48.968L1.75244 49.7994" stroke="#B3B3B3" stroke-width="1.52013" stroke-miterlimit="10" stroke-linecap="round" stroke-linejoin="round"/>
<path d="M13.0278 30.4006L15.7679 28.8342L55.3643 6.12195L58.1043 4.54358" stroke="#B3B3B3" stroke-width="1.52013" stroke-miterlimit="10" stroke-linecap="round" stroke-linejoin="round"/>
<path d="M80.6422 4.55561L79.9026 4.146C73.2832 0.691567 65.4508 0.691567 58.8314 4.146L58.0918 4.55561" stroke="#B3B3B3" stroke-width="1.52013" stroke-miterlimit="10" stroke-linecap="round" stroke-linejoin="round"/>
<path d="M80.6421 4.54358L125.719 30.4006" stroke="#B3B3B3" stroke-width="1.52013" stroke-miterlimit="10" stroke-linecap="round" stroke-linejoin="round"/>
<path d="M136.982 49.7994L136.97 48.968C136.7 41.6045 132.73 34.7462 126.434 30.8464L125.719 30.4127" stroke="#B3B3B3" stroke-width="1.52013" stroke-miterlimit="10" stroke-linecap="round" stroke-linejoin="round"/>
<path d="M136.982 49.7994V52.9441" stroke="#B3B3B3" stroke-width="1.52013" stroke-miterlimit="10" stroke-linecap="round" stroke-linejoin="round"/>
<path d="M15.7676 28.8342L20.8474 31.0874L21.4173 25.581L26.4971 27.8462L27.0791 22.3398L32.159 24.593L32.7288 19.0987L37.8087 21.3518L38.3907 15.8575L43.4705 18.1106L44.0404 12.6043L49.1324 14.8574L49.7022 9.36308L54.7821 11.6163L55.364 6.12195" stroke="#B3B3B3" stroke-width="1.52013" stroke-miterlimit="10" stroke-linecap="round" stroke-linejoin="round"/>
<path d="M69.3673 1.5434L66.2757 6.92926L61.802 2.84468L60.3593 8.57994L55.3643 6.12197" stroke="#B3B3B3" stroke-width="1.52013" stroke-miterlimit="10" stroke-linecap="round" stroke-linejoin="round"/>
<path d="M122.979 28.8342L117.899 31.0874L117.317 25.581L112.237 27.8462L111.667 22.3398L106.575 24.593L106.005 19.0987L100.926 21.3518L100.356 15.8575L95.2637 18.1106L94.6939 12.6043L89.614 14.8574L89.032 9.36308L83.9521 11.6163L83.3823 6.12195" stroke="#B3B3B3" stroke-width="1.52013" stroke-miterlimit="10" stroke-linecap="round" stroke-linejoin="round"/>
<path d="M69.3672 1.5434L72.4587 6.92926L76.9324 2.84468L78.3873 8.57994L83.3823 6.12197" stroke="#B3B3B3" stroke-width="1.52013" stroke-miterlimit="10" stroke-linecap="round" stroke-linejoin="round"/>
<path d="M4.77148 38.6059L11.0153 38.63L9.68165 32.7381L15.4162 34.3647L15.7678 28.8342" stroke="#B3B3B3" stroke-width="1.52013" stroke-miterlimit="10" stroke-linecap="round" stroke-linejoin="round"/>
<path d="M4.77129 38.606L7.92349 43.9557L2.11616 45.763L6.3959 49.8838L1.75244 52.9442H6.2625" stroke="#B3B3B3" stroke-width="1.52013" stroke-miterlimit="10" stroke-linecap="round" stroke-linejoin="round"/>
<path d="M2.6499 74.9937L6.26275 68.2102V52.3899" stroke="#B3B3B3" stroke-width="1.52013" stroke-miterlimit="10" stroke-linecap="round" stroke-linejoin="round"/>
<path d="M17.5258 33.0032L16.8105 33.437C10.5138 37.3386 6.54584 44.1933 6.27485 51.5586L6.2627 52.3899" stroke="#B3B3B3" stroke-width="1.52013" stroke-miterlimit="10" stroke-linecap="round" stroke-linejoin="round"/>
<path d="M17.5254 32.9911L58.1039 9.71259" stroke="#B3B3B3" stroke-width="1.52013" stroke-miterlimit="10" stroke-linecap="round" stroke-linejoin="round"/>
<path d="M80.6422 9.72456L79.9026 9.31495C73.2832 5.86051 65.4508 5.86051 58.8314 9.31495L58.0918 9.72456" stroke="#B3B3B3" stroke-width="1.52013" stroke-miterlimit="10" stroke-linecap="round" stroke-linejoin="round"/>
<path d="M80.6421 9.71259L121.208 32.9911" stroke="#B3B3B3" stroke-width="1.52013" stroke-miterlimit="10" stroke-linecap="round" stroke-linejoin="round"/>
<path d="M132.484 52.3899L132.472 51.5586C132.202 44.195 128.231 37.3368 121.936 33.437L121.221 33.0032" stroke="#B3B3B3" stroke-width="1.52013" stroke-miterlimit="10" stroke-linecap="round" stroke-linejoin="round"/>
<path d="M132.484 52.3899V52.9442H136.982" stroke="#B3B3B3" stroke-width="1.52013" stroke-miterlimit="10" stroke-linecap="round" stroke-linejoin="round"/>
<path d="M133.963 38.6059L127.731 38.63L129.053 32.7381L123.318 34.3647L122.979 28.8342" stroke="#B3B3B3" stroke-width="1.52013" stroke-miterlimit="10" stroke-linecap="round" stroke-linejoin="round"/>
<path d="M133.963 38.606L130.823 43.9557L136.618 45.763L132.338 49.8838L136.982 52.9442" stroke="#B3B3B3" stroke-width="1.52013" stroke-miterlimit="10" stroke-linecap="round" stroke-linejoin="round"/>
<path d="M6.2625 68.2102H1.75244" stroke="#B3B3B3" stroke-width="1.52013" stroke-miterlimit="10" stroke-linecap="round" stroke-linejoin="round"/>
<path d="M136.982 52.9442V74.9937H136.085L132.484 68.2102V52.9442" stroke="#B3B3B3" stroke-width="1.52013" stroke-miterlimit="10" stroke-linecap="round" stroke-linejoin="round"/>
<path d="M132.484 68.2102H136.982" stroke="#B3B3B3" stroke-width="1.52013" stroke-miterlimit="10" stroke-linecap="round" stroke-linejoin="round"/>
<path d="M9.28149 41.076L9.2209 41.088L9.18452 41.1242L9.17236 41.1844L9.18452 41.2326L9.2209 41.2808L9.28149 41.2929L9.32998 41.2808L9.37852 41.2326L9.39062 41.1844L9.37852 41.1242L9.32998 41.088L9.28149 41.076Z" stroke="#B3B3B3" stroke-width="0.288" stroke-miterlimit="10" stroke-linecap="round" stroke-linejoin="round"/>
<path d="M9.28125 41.1846V41.1724" stroke="#B3B3B3" stroke-width="0.288" stroke-miterlimit="10" stroke-linecap="round" stroke-linejoin="round"/>
<path d="M4.77124 38.4974L4.71065 38.5095L4.67427 38.5456L4.66211 38.6059L4.67427 38.6541L4.71065 38.7023L4.77124 38.7143L4.81973 38.7023L4.86826 38.6541L4.88032 38.6059L4.86826 38.5456L4.81973 38.5095L4.77124 38.4974Z" stroke="#B3B3B3" stroke-width="0.288" stroke-miterlimit="10" stroke-linecap="round" stroke-linejoin="round"/>
<path d="M4.77148 38.6061V38.5939" stroke="#B3B3B3" stroke-width="0.288" stroke-miterlimit="10" stroke-linecap="round" stroke-linejoin="round"/>
<path d="M4.77148 38.606L9.28155 41.1844" stroke="#B3B3B3" stroke-width="0.72" stroke-miterlimit="10" stroke-linecap="round" stroke-linejoin="round"/>
<path d="M129.465 41.1844L133.963 38.606" stroke="#B3B3B3" stroke-width="0.72" stroke-miterlimit="10" stroke-linecap="round" stroke-linejoin="round"/>
<path d="M1.75244 52.9442L6.2625 58.0409L1.75244 63.1255L6.2625 68.2102" stroke="#B3B3B3" stroke-width="0.72" stroke-miterlimit="10" stroke-linecap="round" stroke-linejoin="round"/>
<path d="M136.982 52.9442L132.484 58.0409L136.982 63.1255L132.484 68.2102" stroke="#B3B3B3" stroke-width="0.72" stroke-miterlimit="10" stroke-linecap="round" stroke-linejoin="round"/>
<path d="M135.697 74.2708H80.8604" stroke="#B3B3B3" stroke-width="1.52013" stroke-miterlimit="10" stroke-linecap="round" stroke-linejoin="round"/>
<path d="M3.0376 74.2708H57.8737" stroke="#B3B3B3" stroke-width="1.52013" stroke-miterlimit="10" stroke-linecap="round" stroke-linejoin="round"/>
<path d="M57.8735 49.5825H80.8603" stroke="#B3B3B3" stroke-width="1.92" stroke-miterlimit="10" stroke-linecap="round" stroke-linejoin="round"/>
<path d="M58.104 49.7994V74.9937H80.6422V49.7994H58.104Z" stroke="#B3B3B3" stroke-width="1.52013" stroke-miterlimit="10" stroke-linecap="round" stroke-linejoin="round"/>
<path d="M69.3672 49.7994V74.9937H75.0047V63.8002H69.3672V74.9937" stroke="#B3B3B3" stroke-width="1.52013" stroke-miterlimit="10" stroke-linecap="round" stroke-linejoin="round"/>
<path d="M6.2627 64.7521H57.8739" stroke="#B3B3B3" stroke-width="1.52013" stroke-miterlimit="10" stroke-linecap="round" stroke-linejoin="round"/>
<path d="M80.8604 64.7521H132.484" stroke="#B3B3B3" stroke-width="1.52013" stroke-miterlimit="10" stroke-linecap="round" stroke-linejoin="round"/>
<path d="M6.2627 55.2335H57.8739" stroke="#B3B3B3" stroke-width="1.52013" stroke-miterlimit="10" stroke-linecap="round" stroke-linejoin="round"/>
<path d="M80.8604 55.2335H132.484" stroke="#B3B3B3" stroke-width="1.52013" stroke-miterlimit="10" stroke-linecap="round" stroke-linejoin="round"/>
<path d="M7.28076 45.7148H131.453" stroke="#B3B3B3" stroke-width="1.52013" stroke-miterlimit="10" stroke-linecap="round" stroke-linejoin="round"/>
<path d="M120.312 36.1962H18.0288" stroke="#B3B3B3" stroke-width="1.52013" stroke-miterlimit="10" stroke-linecap="round" stroke-linejoin="round"/>
<path d="M28.5342 26.6775H110.2" stroke="#B3B3B3" stroke-width="1.52013" stroke-miterlimit="10" stroke-linecap="round" stroke-linejoin="round"/>
<path d="M45.1313 17.1588H93.6146" stroke="#B3B3B3" stroke-width="1.52013" stroke-miterlimit="10" stroke-linecap="round" stroke-linejoin="round"/>
<path d="M57.8735 9.84509V74.9938" stroke="#B3B3B3" stroke-width="1.52013" stroke-miterlimit="10" stroke-linecap="round" stroke-linejoin="round"/>
<path d="M38.1484 21.1591V74.9938" stroke="#B3B3B3" stroke-width="1.52013" stroke-miterlimit="10" stroke-linecap="round" stroke-linejoin="round"/>
<path d="M18.0288 32.7139V74.9335" stroke="#B3B3B3" stroke-width="1.52013" stroke-miterlimit="10" stroke-linecap="round" stroke-linejoin="round"/>
<path d="M80.8604 9.84509V74.9938" stroke="#B3B3B3" stroke-width="1.52013" stroke-miterlimit="10" stroke-linecap="round" stroke-linejoin="round"/>
<path d="M100.586 21.1591V74.9938" stroke="#B3B3B3" stroke-width="1.52013" stroke-miterlimit="10" stroke-linecap="round" stroke-linejoin="round"/>
<path d="M9.28149 41.076L9.2209 41.088L9.18452 41.1242L9.17236 41.1844L9.18452 41.2326L9.2209 41.2808L9.28149 41.2929L9.32998 41.2808L9.37852 41.2326L9.39062 41.1844L9.37852 41.1242L9.32998 41.088L9.28149 41.076Z" stroke="#B3B3B3" stroke-width="0.288" stroke-miterlimit="10" stroke-linecap="round" stroke-linejoin="round"/>
<path d="M9.28125 41.1846V41.1724" stroke="#B3B3B3" stroke-width="0.288" stroke-miterlimit="10" stroke-linecap="round" stroke-linejoin="round"/>
<path d="M4.77124 38.4974L4.71065 38.5095L4.67427 38.5456L4.66211 38.6059L4.67427 38.6541L4.71065 38.7023L4.77124 38.7143L4.81973 38.7023L4.86826 38.6541L4.88032 38.6059L4.86826 38.5456L4.81973 38.5095L4.77124 38.4974Z" stroke="#B3B3B3" stroke-width="0.288" stroke-miterlimit="10" stroke-linecap="round" stroke-linejoin="round"/>
<path d="M4.77148 38.6061V38.5939" stroke="#B3B3B3" stroke-width="0.288" stroke-miterlimit="10" stroke-linecap="round" stroke-linejoin="round"/>
<path d="M129.465 41.1844L133.963 38.606" stroke="#B3B3B3" stroke-width="0.72" stroke-miterlimit="10" stroke-linecap="round" stroke-linejoin="round"/>
<path d="M136.982 52.9442L132.484 58.0409L136.982 63.1255L132.484 68.2102" stroke="#B3B3B3" stroke-width="0.72" stroke-miterlimit="10" stroke-linecap="round" stroke-linejoin="round"/>
<path d="M136.533 75.0677H80.8604" stroke="#B3B3B3" stroke-width="1.52013" stroke-miterlimit="10" stroke-linecap="round" stroke-linejoin="round"/>
<path d="M1.75244 75.1247H57.8737" stroke="#B3B3B3" stroke-width="1.52013" stroke-miterlimit="10" stroke-linecap="round" stroke-linejoin="round"/>
<path d="M69.3672 49.7994V74.9937" stroke="#B3B3B3" stroke-width="1.52013" stroke-miterlimit="10" stroke-linecap="round" stroke-linejoin="round"/>
<path d="M6.2627 64.7521H57.8739" stroke="#B3B3B3" stroke-width="1.52013" stroke-miterlimit="10" stroke-linecap="round" stroke-linejoin="round"/>
<path d="M80.8604 64.7521H132.484" stroke="#B3B3B3" stroke-width="1.52013" stroke-miterlimit="10" stroke-linecap="round" stroke-linejoin="round"/>
<path d="M28.5342 26.6775H110.2" stroke="#B3B3B3" stroke-width="1.52013" stroke-miterlimit="10" stroke-linecap="round" stroke-linejoin="round"/>
<path d="M80.6421 9.71275V9.7005" stroke="#B3B3B3" stroke-width="1.52013" stroke-miterlimit="10" stroke-linecap="round" stroke-linejoin="round"/>
<path d="M94.1602 17.4723V17.46" stroke="#B3B3B3" stroke-width="1.52013" stroke-miterlimit="10" stroke-linecap="round" stroke-linejoin="round"/>
<path d="M107.69 25.2317V25.2195" stroke="#B3B3B3" stroke-width="1.52013" stroke-miterlimit="10" stroke-linecap="round" stroke-linejoin="round"/>
<path d="M121.208 32.9913V32.9791" stroke="#B3B3B3" stroke-width="1.52013" stroke-miterlimit="10" stroke-linecap="round" stroke-linejoin="round"/>
<path d="M129.465 41.1846V41.1724" stroke="#B3B3B3" stroke-width="1.52013" stroke-miterlimit="10" stroke-linecap="round" stroke-linejoin="round"/>
<path d="M132.484 52.9443V52.9321" stroke="#B3B3B3" stroke-width="1.52013" stroke-miterlimit="10" stroke-linecap="round" stroke-linejoin="round"/>
<path d="M136.982 74.4396V74.4274" stroke="#B3B3B3" stroke-width="1.52013" stroke-miterlimit="10" stroke-linecap="round" stroke-linejoin="round"/>
<path d="M132.484 64.1499V64.1376" stroke="#B3B3B3" stroke-width="1.52013" stroke-miterlimit="10" stroke-linecap="round" stroke-linejoin="round"/>
<path d="M9.28125 41.1846V41.1724" stroke="#B3B3B3" stroke-width="1.52013" stroke-miterlimit="10" stroke-linecap="round" stroke-linejoin="round"/>
<path d="M6.2627 52.9443V52.9321" stroke="#B3B3B3" stroke-width="1.52013" stroke-miterlimit="10" stroke-linecap="round" stroke-linejoin="round"/>
<path d="M1.75244 74.4396V74.4274" stroke="#B3B3B3" stroke-width="1.52013" stroke-miterlimit="10" stroke-linecap="round" stroke-linejoin="round"/>
<path d="M6.2627 64.1499V64.1376" stroke="#B3B3B3" stroke-width="1.52013" stroke-miterlimit="10" stroke-linecap="round" stroke-linejoin="round"/>
<path d="M9.28149 41.076L9.2209 41.088L9.18452 41.1242L9.17236 41.1844L9.18452 41.2326L9.2209 41.2808L9.28149 41.2929L9.32998 41.2808L9.37852 41.2326L9.39062 41.1844L9.37852 41.1242L9.32998 41.088L9.28149 41.076Z" stroke="#B3B3B3" stroke-width="0.288" stroke-miterlimit="10" stroke-linecap="round" stroke-linejoin="round"/>
<path d="M9.28125 41.1846V41.1724" stroke="#B3B3B3" stroke-width="0.288" stroke-miterlimit="10" stroke-linecap="round" stroke-linejoin="round"/>
<path d="M4.77124 38.4974L4.71065 38.5095L4.67427 38.5456L4.66211 38.6059L4.67427 38.6541L4.71065 38.7023L4.77124 38.7143L4.81973 38.7023L4.86826 38.6541L4.88032 38.6059L4.86826 38.5456L4.81973 38.5095L4.77124 38.4974Z" stroke="#B3B3B3" stroke-width="0.288" stroke-miterlimit="10" stroke-linecap="round" stroke-linejoin="round"/>
<path d="M4.77148 38.6061V38.5939" stroke="#B3B3B3" stroke-width="0.288" stroke-miterlimit="10" stroke-linecap="round" stroke-linejoin="round"/>
<path d="M129.465 41.1844L133.963 38.606" stroke="#B3B3B3" stroke-width="0.72" stroke-miterlimit="10" stroke-linecap="round" stroke-linejoin="round"/>
<path d="M136.982 52.9442L132.484 58.0409L136.982 63.1255L132.484 68.2102" stroke="#B3B3B3" stroke-width="0.72" stroke-miterlimit="10" stroke-linecap="round" stroke-linejoin="round"/>
<path d="M9.28149 41.076L9.2209 41.088L9.18452 41.1242L9.17236 41.1844L9.18452 41.2326L9.2209 41.2808L9.28149 41.2929L9.32998 41.2808L9.37852 41.2326L9.39062 41.1844L9.37852 41.1242L9.32998 41.088L9.28149 41.076Z" stroke="#B3B3B3" stroke-width="0.288" stroke-miterlimit="10" stroke-linecap="round" stroke-linejoin="round"/>
<path d="M9.28125 41.1846V41.1724" stroke="#B3B3B3" stroke-width="0.288" stroke-miterlimit="10" stroke-linecap="round" stroke-linejoin="round"/>
<path d="M4.77124 38.4974L4.71065 38.5095L4.67427 38.5456L4.66211 38.6059L4.67427 38.6541L4.71065 38.7023L4.77124 38.7143L4.81973 38.7023L4.86826 38.6541L4.88032 38.6059L4.86826 38.5456L4.81973 38.5095L4.77124 38.4974Z" stroke="#B3B3B3" stroke-width="0.288" stroke-miterlimit="10" stroke-linecap="round" stroke-linejoin="round"/>
<path d="M4.77148 38.6061V38.5939" stroke="#B3B3B3" stroke-width="0.288" stroke-miterlimit="10" stroke-linecap="round" stroke-linejoin="round"/>
<path d="M129.465 41.1844L133.963 38.606" stroke="#B3B3B3" stroke-width="0.72" stroke-miterlimit="10" stroke-linecap="round" stroke-linejoin="round"/>
<path d="M136.982 52.9442L132.484 58.0409L136.982 63.1255L132.484 68.2102" stroke="#B3B3B3" stroke-width="0.72" stroke-miterlimit="10" stroke-linecap="round" stroke-linejoin="round"/>
<path d="M9.28149 41.076L9.2209 41.088L9.18452 41.1242L9.17236 41.1844L9.18452 41.2326L9.2209 41.2808L9.28149 41.2929L9.32998 41.2808L9.37852 41.2326L9.39062 41.1844L9.37852 41.1242L9.32998 41.088L9.28149 41.076Z" stroke="#B3B3B3" stroke-width="0.288" stroke-miterlimit="10" stroke-linecap="round" stroke-linejoin="round"/>
<path d="M9.28125 41.1846V41.1724" stroke="#B3B3B3" stroke-width="0.288" stroke-miterlimit="10" stroke-linecap="round" stroke-linejoin="round"/>
<path d="M4.77124 38.4974L4.71065 38.5095L4.67427 38.5456L4.66211 38.6059L4.67427 38.6541L4.71065 38.7023L4.77124 38.7143L4.81973 38.7023L4.86826 38.6541L4.88032 38.6059L4.86826 38.5456L4.81973 38.5095L4.77124 38.4974Z" stroke="#B3B3B3" stroke-width="0.288" stroke-miterlimit="10" stroke-linecap="round" stroke-linejoin="round"/>
<path d="M4.77148 38.6061V38.5939" stroke="#B3B3B3" stroke-width="0.288" stroke-miterlimit="10" stroke-linecap="round" stroke-linejoin="round"/>
<path d="M129.465 41.1844L133.963 38.606" stroke="#B3B3B3" stroke-width="0.72" stroke-miterlimit="10" stroke-linecap="round" stroke-linejoin="round"/>
<path d="M136.982 52.9442L132.484 58.0409L136.982 63.1255L132.484 68.2102" stroke="#B3B3B3" stroke-width="0.72" stroke-miterlimit="10" stroke-linecap="round" stroke-linejoin="round"/>
<path d="M9.28149 41.076L9.2209 41.088L9.18452 41.1242L9.17236 41.1844L9.18452 41.2326L9.2209 41.2808L9.28149 41.2929L9.32998 41.2808L9.37852 41.2326L9.39062 41.1844L9.37852 41.1242L9.32998 41.088L9.28149 41.076Z" stroke="#B3B3B3" stroke-width="0.288" stroke-miterlimit="10" stroke-linecap="round" stroke-linejoin="round"/>
<path d="M9.28125 41.1846V41.1724" stroke="#B3B3B3" stroke-width="0.288" stroke-miterlimit="10" stroke-linecap="round" stroke-linejoin="round"/>
<path d="M4.77124 38.4974L4.71065 38.5095L4.67427 38.5456L4.66211 38.6059L4.67427 38.6541L4.71065 38.7023L4.77124 38.7143L4.81973 38.7023L4.86826 38.6541L4.88032 38.6059L4.86826 38.5456L4.81973 38.5095L4.77124 38.4974Z" stroke="#B3B3B3" stroke-width="0.288" stroke-miterlimit="10" stroke-linecap="round" stroke-linejoin="round"/>
<path d="M4.77148 38.6061V38.5939" stroke="#B3B3B3" stroke-width="0.288" stroke-miterlimit="10" stroke-linecap="round" stroke-linejoin="round"/>
<path d="M129.465 41.1844L133.963 38.606" stroke="#B3B3B3" stroke-width="0.72" stroke-miterlimit="10" stroke-linecap="round" stroke-linejoin="round"/>
<path d="M136.982 52.9442L132.484 58.0409L136.982 63.1255L132.484 68.2102" stroke="#B3B3B3" stroke-width="0.72" stroke-miterlimit="10" stroke-linecap="round" stroke-linejoin="round"/>
<path d="M9.28149 41.076L9.2209 41.088L9.18452 41.1242L9.17236 41.1844L9.18452 41.2326L9.2209 41.2808L9.28149 41.2929L9.32998 41.2808L9.37852 41.2326L9.39062 41.1844L9.37852 41.1242L9.32998 41.088L9.28149 41.076Z" stroke="#B3B3B3" stroke-width="0.288" stroke-miterlimit="10" stroke-linecap="round" stroke-linejoin="round"/>
<path d="M9.28125 41.1846V41.1724" stroke="#B3B3B3" stroke-width="0.288" stroke-miterlimit="10" stroke-linecap="round" stroke-linejoin="round"/>
<path d="M4.77124 38.4974L4.71065 38.5095L4.67427 38.5456L4.66211 38.6059L4.67427 38.6541L4.71065 38.7023L4.77124 38.7143L4.81973 38.7023L4.86826 38.6541L4.88032 38.6059L4.86826 38.5456L4.81973 38.5095L4.77124 38.4974Z" stroke="#B3B3B3" stroke-width="0.288" stroke-miterlimit="10" stroke-linecap="round" stroke-linejoin="round"/>
<path d="M4.77148 38.6061V38.5939" stroke="#B3B3B3" stroke-width="0.288" stroke-miterlimit="10" stroke-linecap="round" stroke-linejoin="round"/>
<path d="M129.465 41.1844L133.963 38.606" stroke="#B3B3B3" stroke-width="0.72" stroke-miterlimit="10" stroke-linecap="round" stroke-linejoin="round"/>
<path d="M136.982 52.9442L132.484 58.0409L136.982 63.1255L132.484 68.2102" stroke="#B3B3B3" stroke-width="0.72" stroke-miterlimit="10" stroke-linecap="round" stroke-linejoin="round"/>
<path d="M9.28149 41.076L9.2209 41.088L9.18452 41.1242L9.17236 41.1844L9.18452 41.2326L9.2209 41.2808L9.28149 41.2929L9.32998 41.2808L9.37852 41.2326L9.39062 41.1844L9.37852 41.1242L9.32998 41.088L9.28149 41.076Z" stroke="#B3B3B3" stroke-width="0.288" stroke-miterlimit="10" stroke-linecap="round" stroke-linejoin="round"/>
<path d="M9.28125 41.1846V41.1724" stroke="#B3B3B3" stroke-width="0.288" stroke-miterlimit="10" stroke-linecap="round" stroke-linejoin="round"/>
<path d="M4.77124 38.4974L4.71065 38.5095L4.67427 38.5456L4.66211 38.6059L4.67427 38.6541L4.71065 38.7023L4.77124 38.7143L4.81973 38.7023L4.86826 38.6541L4.88032 38.6059L4.86826 38.5456L4.81973 38.5095L4.77124 38.4974Z" stroke="#B3B3B3" stroke-width="0.288" stroke-miterlimit="10" stroke-linecap="round" stroke-linejoin="round"/>
<path d="M4.77148 38.6061V38.5939" stroke="#B3B3B3" stroke-width="0.288" stroke-miterlimit="10" stroke-linecap="round" stroke-linejoin="round"/>
<path d="M129.465 41.1844L133.963 38.606" stroke="#B3B3B3" stroke-width="0.72" stroke-miterlimit="10" stroke-linecap="round" stroke-linejoin="round"/>
<path d="M136.982 52.9442L132.484 58.0409L136.982 63.1255L132.484 68.2102" stroke="#B3B3B3" stroke-width="0.72" stroke-miterlimit="10" stroke-linecap="round" stroke-linejoin="round"/>
<path d="M9.28149 41.076L9.2209 41.088L9.18452 41.1242L9.17236 41.1844L9.18452 41.2326L9.2209 41.2808L9.28149 41.2929L9.32998 41.2808L9.37852 41.2326L9.39062 41.1844L9.37852 41.1242L9.32998 41.088L9.28149 41.076Z" stroke="#B3B3B3" stroke-width="0.288" stroke-miterlimit="10" stroke-linecap="round" stroke-linejoin="round"/>
<path d="M9.28125 41.1846V41.1724" stroke="#B3B3B3" stroke-width="0.288" stroke-miterlimit="10" stroke-linecap="round" stroke-linejoin="round"/>
<path d="M4.77124 38.4974L4.71065 38.5095L4.67427 38.5456L4.66211 38.6059L4.67427 38.6541L4.71065 38.7023L4.77124 38.7143L4.81973 38.7023L4.86826 38.6541L4.88032 38.6059L4.86826 38.5456L4.81973 38.5095L4.77124 38.4974Z" stroke="#B3B3B3" stroke-width="0.288" stroke-miterlimit="10" stroke-linecap="round" stroke-linejoin="round"/>
<path d="M4.77148 38.6061V38.5939" stroke="#B3B3B3" stroke-width="0.288" stroke-miterlimit="10" stroke-linecap="round" stroke-linejoin="round"/>
<path d="M129.465 41.1844L133.963 38.606" stroke="#B3B3B3" stroke-width="0.72" stroke-miterlimit="10" stroke-linecap="round" stroke-linejoin="round"/>
<path d="M136.982 52.9442L132.484 58.0409L136.982 63.1255L132.484 68.2102" stroke="#B3B3B3" stroke-width="0.72" stroke-miterlimit="10" stroke-linecap="round" stroke-linejoin="round"/>
</svg>
