<?xml version="1.0" encoding="utf-8"?><svg viewBox="0 0 95 95" xmlns="http://www.w3.org/2000/svg" xmlns:xlink="http://www.w3.org/1999/xlink"><style>:root>svg{display:none}:root>svg:target{display:block}</style><svg fill="none" viewBox="0 0 13 9" id="arrow-b" xmlns="http://www.w3.org/2000/svg"><path d="M12.944 1.555c-.043-.112-.112-.196-.348-.434-.363-.366-.45-.414-.726-.417-.147 0-.231.013-.305.048-.068.033-.901.846-2.584 2.527L6.5 5.757l-2.483-2.48C2.087 1.346 1.51.782 1.422.744a.66.66 0 0 0-.28-.054c-.261 0-.388.074-.738.427-.247.249-.302.322-.348.444a.667.667 0 0 0-.003.518c.051.142.18.274 3.03 3.123C6.372 8.496 6.164 8.31 6.5 8.31c.335 0 .127.187 3.418-3.106 2.85-2.851 2.978-2.98 3.029-3.123a.71.71 0 0 0-.003-.525Z" fill="#fff"/></svg><svg fill="none" viewBox="0 0 5 8" id="arrow-l" xmlns="http://www.w3.org/2000/svg"><path d="M4.344.295c.063.025.11.064.242.198.203.207.229.256.228.411a.377.377 0 0 1-.029.171c-.019.039-.481.5-1.438 1.435l-1.41 1.376L3.312 5.3c1.07 1.098 1.383 1.426 1.404 1.476.02.043.028.096.028.158-.002.147-.045.217-.245.412-.142.136-.184.167-.253.192a.375.375 0 0 1-.29-.002c-.08-.03-.154-.103-1.734-1.725C.396 3.938.5 4.056.503 3.868.504 3.68.396 3.795 2.271 1.97 3.895.387 3.968.317 4.049.29a.399.399 0 0 1 .295.005Z" fill="#fff"/></svg><svg fill="none" viewBox="0 0 6 8" id="arrow-r" xmlns="http://www.w3.org/2000/svg"><path d="M1.476.172c-.063.024-.11.062-.246.193C1.022.566.994.615.99.77a.377.377 0 0 0 .026.171c.018.04.468.513 1.4 1.471l1.376 1.412L2.38 5.202C1.28 6.272.96 6.592.939 6.642a.371.371 0 0 0-.032.157c-.002.147.038.219.234.418.138.14.179.172.247.199a.375.375 0 0 0 .291.005c.08-.028.156-.1 1.777-1.68 1.875-1.826 1.768-1.71 1.77-1.899.002-.188.106-.07-1.72-1.943C1.922.277 1.85.204 1.771.175a.399.399 0 0 0-.296-.003Z" fill="#fff"/></svg><svg fill="none" viewBox="0 0 11 9" id="check" xmlns="http://www.w3.org/2000/svg"><path d="M3.847 8.355a.538.538 0 0 1-.382-.158L.158 4.89a.54.54 0 1 1 .764-.763l2.925 2.925L10.078.82a.54.54 0 1 1 .764.764L4.228 8.197a.539.539 0 0 1-.381.158Z" fill="#000"/></svg><svg fill="none" viewBox="0 0 95 95" id="hero-label-icon" xmlns="http://www.w3.org/2000/svg"><path d="M45.774.186c-.834.222-2.06.816-2.838 1.41-.706.556-1.967 1.002-2.784 1.002-.334 0-1.169-.13-1.874-.297-1.818-.427-3.32-.26-5.01.575-1.335.65-2.059 1.336-3.45 3.228-.743 1.04-1.912 1.652-3.582 1.893-3.21.445-5.789 2.765-6.401 5.733-.408 2.004-1.28 3.136-3.117 4.064-1.15.594-2.45 1.967-3.099 3.265-.52 1.077-.538 1.188-.556 3.99 0 3.21-.093 3.525-1.207 4.861-2.3 2.746-2.579 5.567-.89 8.98.909 1.837 1.002 2.97.37 4.788-1.057 3.006-.11 6.067 2.599 8.442 1.41 1.243 1.744 1.967 2.003 4.36.372 3.582 2.023 5.604 5.567 6.81 1.113.39 2.245 1.169 2.245 1.54 0 .13-1.763 4.49-3.915 9.686-3.692 8.906-3.915 9.5-3.84 10.409.11 1.206.816 2.19 1.966 2.69 1.113.501 1.484.427 6.605-1.15 3.192-.984 4.305-1.262 4.49-1.095.13.111 1.17 1.967 2.32 4.12 1.132 2.17 2.282 4.174 2.56 4.47 1.28 1.393 3.396 1.374 4.713-.018.353-.39 1.8-3.655 4.565-10.335 2.245-5.38 4.119-9.834 4.175-9.89a.14.14 0 0 1 .222 0c.056.056 1.93 4.51 4.157 9.89 2.783 6.699 4.23 9.946 4.583 10.335 1.317 1.392 3.432 1.41 4.712.019.279-.297 1.43-2.3 2.561-4.472 1.15-2.152 2.19-4.008 2.338-4.138.185-.148 1.243.112 4.49 1.114 5.121 1.577 5.474 1.651 6.587 1.15 1.15-.5 1.856-1.484 1.967-2.69.074-.91-.148-1.503-3.84-10.41-2.153-5.195-3.916-9.555-3.916-9.685 0-.371 1.132-1.15 2.245-1.54 1.614-.557 2.56-1.095 3.488-2.041 1.3-1.28 1.856-2.56 2.079-4.769.26-2.393.593-3.117 2.004-4.36 2.746-2.393 3.6-5.232 2.579-8.442-.613-1.967-.538-2.932.408-4.806 1.67-3.395 1.391-6.234-.91-8.962-1.15-1.354-1.335-2.097-1.206-4.75.112-1.985.075-2.375-.26-3.34-.5-1.391-1.632-2.876-2.708-3.562A84.404 84.404 0 0 0 77.28 17.2c-1.02-.65-1.688-1.725-2.115-3.432-.78-3.173-3.173-5.326-6.401-5.771-1.652-.241-2.84-.853-3.581-1.893-1.392-1.892-2.116-2.579-3.452-3.228-1.688-.835-3.19-1.002-5.01-.575-.704.167-1.54.297-1.873.297-.835 0-2.078-.464-2.84-1.04C50.822.65 49.43.149 47.909.075c-.78-.037-1.744.019-2.134.112Zm3.229 2.875c.427.167 1.076.501 1.41.761 1.837 1.41 3.915 1.8 6.55 1.262 1.429-.278 1.818-.297 2.56-.093 1.262.334 2.153.984 2.988 2.208 1.28 1.911 2.82 2.95 4.935 3.359 3.451.686 4.38 1.447 5.103 4.193.668 2.523 1.911 4.175 3.915 5.195 1.095.575 1.985 1.466 2.412 2.43.297.632.334 1.188.297 3.433-.037 2.487 0 2.747.427 3.693.24.556.797 1.447 1.224 1.967 1.243 1.521 1.448 2.04 1.448 3.506 0 1.15-.075 1.466-.78 2.784-1.187 2.32-1.354 4.249-.52 6.568.409 1.095.372 2.71-.055 3.655-.204.427-.705 1.095-1.15 1.485-2.487 2.226-3.025 3.228-3.396 6.197-.371 2.932-1.224 4.175-3.358 4.824-2.32.705-3.99 2.134-4.973 4.268-.798 1.688-1.28 2.263-2.394 2.876-.853.464-1.15.52-3.005.556-2.858.056-3.897.464-5.956 2.32-.687.63-1.54 1.261-1.874 1.41-1.058.445-2.542.334-4.12-.334-1.261-.52-1.632-.594-3.191-.594s-1.93.074-3.191.594c-1.578.668-3.062.78-4.12.334-.334-.149-1.187-.78-1.873-1.41-2.06-1.856-3.1-2.264-5.957-2.32-1.855-.037-2.152-.092-3.006-.556-1.113-.613-1.595-1.188-2.393-2.876-.983-2.134-2.653-3.563-4.973-4.268-2.133-.65-2.987-1.874-3.34-4.805-.37-2.97-.909-3.953-3.414-6.235-.445-.408-.964-1.076-1.15-1.484-.427-.928-.445-2.56-.056-3.637.835-2.32.668-4.249-.52-6.568-.704-1.318-.778-1.633-.778-2.784 0-1.465.204-1.985 1.447-3.506.427-.52.983-1.41 1.224-1.967.427-.946.464-1.206.427-3.692-.037-2.246 0-2.802.297-3.433.427-.965 1.317-1.856 2.412-2.43 1.985-1.021 3.247-2.673 3.915-5.177.427-1.578.78-2.208 1.707-2.988.742-.63 1.188-.798 2.932-1.095 2.412-.426 4.045-1.484 5.4-3.488.834-1.224 1.725-1.874 2.987-2.208.742-.204 1.131-.185 2.56.093 2.635.538 4.713.148 6.55-1.262 1.299-1.002 2.932-1.28 4.416-.76ZM25.847 68.355c.185.483 1.966 1.745 3.043 2.153.835.334 1.521.427 3.117.445 2.412.056 3.006.278 4.768 1.911.613.557 1.578 1.243 2.171 1.522.91.427 1.28.482 2.95.482 1.615 0 1.874.037 1.8.278-.65 1.745-6.902 16.681-7.069 16.867-.13.13-.353.204-.501.148-.148-.056-1.206-1.911-2.375-4.138-1.169-2.208-2.393-4.304-2.709-4.638-.687-.687-1.855-1.095-2.728-.928-.334.056-2.486.705-4.824 1.429-2.338.705-4.36 1.261-4.508 1.187-.186-.055-.26-.26-.205-.52.13-.63 6.717-16.457 6.847-16.457.074 0 .167.111.223.26Zm46.98 7.756c1.819 4.416 3.359 8.22 3.396 8.443.055.26-.019.463-.186.52-.167.073-2.17-.483-4.49-1.188-2.32-.724-4.49-1.355-4.824-1.41-.91-.186-2.078.204-2.765.909-.315.334-1.559 2.43-2.709 4.657-1.169 2.208-2.245 4.082-2.394 4.12-.13.055-.352-.02-.482-.15-.167-.185-6.42-15.121-7.07-16.866-.073-.24.186-.278 1.8-.278 1.689 0 2.042-.055 3.006-.52.594-.278 1.596-.983 2.245-1.577 1.67-1.558 2.19-1.762 4.64-1.818 1.595-.019 2.281-.111 3.116-.445 1.077-.408 2.858-1.67 3.043-2.153.056-.148.149-.26.223-.26.074 0 1.614 3.619 3.451 8.016Z" fill="#fff"/><path d="M43.047 10.094c-8.628 1.54-15.716 6.586-19.983 14.213-1.43 2.523-2.988 7.403-3.08 9.592-.038.872.018 1.058.408 1.373.556.446 1.41.446 1.837.019.222-.223.463-.983.668-2.097 1.837-10.094 9.221-17.738 19.5-20.132 1.188-.278 2.209-.352 5.196-.352 3.414 0 3.86.037 5.715.52 7.329 1.836 13.285 6.586 16.625 13.266.835 1.651 1.8 4.639 2.17 6.698.205 1.113.446 1.874.669 2.097.426.427 1.28.427 1.837-.019.538-.426.538-1.169.074-3.414-2.227-10.743-10.632-19.13-21.617-21.56-1.892-.427-8.09-.538-10.02-.204Z" fill="#fff"/><path d="M46.665 17.627c-1.113.334-1.466.965-3.432 6.401-1.04 2.858-1.949 5.27-2.023 5.344-.074.074-2.523.223-5.418.334-2.895.093-5.548.223-5.882.278-.853.13-1.837 1.058-2.096 1.967-.168.612-.13.91.11 1.577.28.724.799 1.188 4.844 4.342 2.486 1.948 4.527 3.6 4.527 3.655 0 .075-.668 2.468-1.484 5.325-.817 2.858-1.485 5.53-1.485 5.938 0 1.726 1.726 2.987 3.322 2.45.37-.13 2.708-1.596 5.158-3.248 2.468-1.651 4.583-3.006 4.694-3.006.111 0 2.227 1.355 4.694 3.006 2.45 1.652 4.787 3.117 5.159 3.247 1.595.538 3.32-.723 3.32-2.449 0-.408-.667-3.08-1.483-5.938-.817-2.857-1.485-5.25-1.485-5.306 0-.074 2.041-1.726 4.509-3.655 4.806-3.748 5.065-4.027 5.028-5.474-.037-.78-.445-1.466-1.261-2.06-.464-.352-.891-.408-4.62-.538-2.264-.074-4.918-.204-5.882-.278l-1.745-.13-1.874-5.121c-1.039-2.82-2.022-5.344-2.19-5.604-.63-.964-1.873-1.391-3.005-1.057Zm2.783 8.183c1.002 2.764 1.986 5.232 2.19 5.473.705.91 1.057.984 6.828 1.188 3.006.111 5.53.222 5.622.26.093.018-1.8 1.577-4.212 3.45-2.393 1.893-4.509 3.656-4.657 3.934-.167.26-.297.798-.297 1.206 0 .39.65 3.006 1.466 5.808.798 2.802 1.428 5.121 1.41 5.158-.037.037-2.078-1.28-4.546-2.932-2.486-1.67-4.787-3.098-5.121-3.21a2.031 2.031 0 0 0-1.243 0c-.334.093-2.635 1.54-5.121 3.192-2.468 1.651-4.528 2.987-4.565 2.95-.018-.037.613-2.356 1.41-5.158.817-2.802 1.466-5.437 1.466-5.845 0-.408-.148-.965-.334-1.243-.185-.278-2.282-2.022-4.657-3.896-2.375-1.856-4.25-3.396-4.175-3.433.093-.019 2.616-.13 5.622-.241 5.77-.204 6.123-.279 6.828-1.188.204-.241 1.188-2.709 2.19-5.474 1.002-2.764 1.874-5.028 1.948-5.028.074 0 .946 2.264 1.948 5.029Z" fill="#F29D39"/><path d="M19.963 36.965c-.612.538-.63 1.243-.074 3.767 1.188 5.288 3.563 9.555 7.515 13.526 4.1 4.082 8.516 6.476 14.287 7.719 2.69.575 7.923.575 10.613 0 5.79-1.243 10.168-3.618 14.287-7.719 3.952-3.952 6.272-8.127 7.478-13.47.65-2.895.65-3.1.037-3.73-.65-.65-1.132-.687-1.763-.13-.39.353-.52.76-.76 2.152-.798 4.695-3.136 9.296-6.55 12.877-3.414 3.563-7.7 5.975-12.71 7.144-1.819.427-2.468.5-5.325.5-2.858 0-3.507-.073-5.326-.5-4.694-1.095-8.59-3.173-12.005-6.439-3.71-3.544-6.438-8.646-7.273-13.619-.223-1.354-.371-1.762-.742-2.115-.594-.52-1.04-.52-1.689.037Z" fill="#fff"/></svg><svg fill="none" viewBox="0 0 42 42" id="mail" xmlns="http://www.w3.org/2000/svg"><circle cx="21" cy="21" r="21" fill="#F29D39"/><path d="M13.998 15.912c-.495.09-.925.504-1.021.987-.043.21-.043 8.928 0 9.144.099.492.526.893 1.051.986.226.041 13.446.041 13.672 0 .525-.093.952-.494 1.051-.986.043-.216.043-8.931 0-9.147-.099-.492-.526-.894-1.051-.987-.208-.038-13.501-.035-13.702.003Zm13.528.606c.06.02-.65.643-4.692 4.101-1.627 1.395-1.568 1.348-1.707 1.406a.694.694 0 0 1-.529 0c-.117-.05-1.571-1.28-5.035-4.264-1.17-1.008-1.408-1.226-1.361-1.243.077-.03 13.247-.03 13.324 0Zm-11.283 2.67a282.617 282.617 0 0 1 2.604 2.25c.003.014-.281.264-.634.558-.89.743-1.982 1.689-3.359 2.905-.643.571-1.178 1.04-1.194 1.046-.015.005-.034-.02-.046-.059-.025-.087-.025-8.721 0-8.84a.434.434 0 0 1 .028-.09c.006 0 1.175 1 2.601 2.23Zm11.887 2.267c0 2.401-.007 4.396-.016 4.433-.012.038-.03.064-.046.059a62.09 62.09 0 0 1-1.194-1.046 157.485 157.485 0 0 0-3.36-2.905c-.352-.294-.636-.544-.633-.559.006-.011 1.178-1.027 2.607-2.256 2.36-2.029 2.598-2.224 2.617-2.163.012.038.021 2.035.024 4.437Zm-8.389.73c.53.446.86.571 1.318.504.303-.044.526-.166.93-.506.316-.268.372-.303.418-.271.372.274 2.088 1.744 3.864 3.31 1.175 1.036 1.33 1.184 1.268 1.202-.04.009-3.044.018-6.675.018s-6.635-.01-6.675-.018c-.062-.017.096-.166 1.268-1.202.737-.65 1.596-1.403 1.912-1.674.594-.515 1.976-1.671 1.995-1.671.006 0 .176.137.377.309Z" fill="#fff"/></svg><svg fill="none" viewBox="0 0 42 42" id="tel" xmlns="http://www.w3.org/2000/svg"><circle cx="21" cy="21" r="21" fill="#F29D39"/><g clip-path="url(#ga)"><path d="M15.863 13.047c-.253.065-.513.209-.778.437-.294.253-1.347 1.325-1.52 1.547-.696.89-.709 2.275-.034 4.062.822 2.185 2.363 4.397 4.313 6.194 2.687 2.478 6.287 4.082 8.14 3.632.275-.066.732-.279.941-.438.213-.16 1.625-1.61 1.756-1.8.244-.353.338-.825.244-1.225-.106-.447-.14-.488-1.5-1.85-1.372-1.372-1.416-1.406-1.869-1.5-.359-.075-.725-.01-1.078.194-.081.05-.469.403-.86.79l-.708.7-.229-.118c-.559-.291-.972-.57-1.587-1.075a14.86 14.86 0 0 1-2-2.066c-.353-.462-.872-1.316-.875-1.431 0-.022.244-.278.54-.569.625-.61.872-.894 1.013-1.162.175-.341.21-.772.088-1.129-.122-.362-.241-.5-1.435-1.696-1.181-1.182-1.362-1.338-1.7-1.454a1.754 1.754 0 0 0-.862-.043Zm.725.878c.087.05.587.522 1.259 1.197 1.216 1.218 1.262 1.275 1.26 1.596 0 .285-.076.385-.891 1.2-.413.41-.772.788-.797.841-.038.066-.047.156-.038.31.01.187.035.259.225.637.432.856 1 1.61 1.941 2.572.934.956 1.866 1.669 2.825 2.162.34.175.406.2.563.197a.676.676 0 0 0 .284-.056c.06-.031.447-.394.86-.803.53-.528.79-.763.89-.806a.75.75 0 0 1 .603 0c.188.093 2.397 2.3 2.494 2.493a.665.665 0 0 1 .075.332c0 .322-.066.409-.953 1.3-.878.88-.96.94-1.428 1.046-.454.1-1.213.02-1.982-.209-1.172-.347-2.747-1.178-4.043-2.134-2.497-1.838-4.641-4.647-5.532-7.244-.425-1.234-.472-2.119-.147-2.775.1-.21.194-.316.844-.975.4-.406.784-.775.85-.822.281-.194.569-.216.838-.06Z" fill="#fff"/></g><defs><clipPath id="ga"><path fill="#fff" transform="translate(13 13)" d="M0 0h16v16H0z"/></clipPath></defs></svg><svg fill="none" viewBox="0 0 42 42" id="tg" xmlns="http://www.w3.org/2000/svg"><circle cx="21" cy="21" r="21" fill="#3A8CAF"/><path d="m26.403 16.169-6.533 2.156c-3.302 1.087-6.1 2.01-6.217 2.054a.941.941 0 0 0-.557.474c-.11.226-.114.566-.011.768.085.167.249.34.39.413.058.03.828.372 1.71.759.882.386 1.606.706 1.612.712.005.005.234 1.048.506 2.317.276 1.268.522 2.355.551 2.414.111.229.378.305.61.173.064-.038.673-.486 1.353-.996l1.236-.926 1.43 1.169c.785.645 1.494 1.204 1.573 1.248a.906.906 0 0 0 .677.056c.237-.068.507-.334.58-.572.027-.088.645-2.692 1.371-5.786 1.45-6.173 1.374-5.792 1.219-6.096a.88.88 0 0 0-.767-.501c-.188-.01-.25.003-.733.164Zm.703.785-1.321 5.616a661.226 661.226 0 0 1-1.316 5.549c-.008.009-.038-.006-.064-.03-.03-.023-1.04-.852-2.25-1.84-1.207-.987-2.209-1.804-2.22-1.816-.012-.011 1.007-1.098 2.27-2.417 1.263-1.318 2.323-2.443 2.358-2.502a.45.45 0 0 0 .068-.24c0-.117-.018-.155-.112-.26-.105-.12-.123-.13-.287-.138l-.173-.012-3.448 1.916-3.445 1.916-1.647-.718c-.902-.395-1.632-.73-1.617-.744.024-.023 13.12-4.354 13.187-4.356.029-.003.032.017.017.076Zm-5.288 4.18c0 .006-.653.698-1.453 1.533s-1.474 1.555-1.494 1.605c-.02.047-.155.49-.293.982-.14.492-.264.902-.276.917-.017.02-.591-2.587-.597-2.713-.003-.038.495-.328 2.048-1.193 1.128-.627 2.053-1.142 2.06-1.142.002 0 .005.006.005.011ZM19.966 25.6c.2.161.36.302.36.314 0 .03-1.277.981-1.285.958-.003-.012.073-.3.17-.636.316-1.096.29-1.022.345-.973.027.024.211.173.41.337Z" fill="#fff" fill-opacity=".84"/></svg><svg fill="none" viewBox="0 0 42 42" id="wa" xmlns="http://www.w3.org/2000/svg"><circle cx="21" cy="21" r="21" fill="#3FB452"/><g clip-path="url(#ia)" fill="#fff" fill-opacity=".84"><path d="M26.65 15.35A7.943 7.943 0 0 0 21 13c-4.405 0-8 3.595-8 8 0 1.303.32 2.59.927 3.734l-.913 3.684a.469.469 0 0 0 .568.568l3.684-.913a7.977 7.977 0 0 0 9.384-1.423A7.944 7.944 0 0 0 29 21a7.943 7.943 0 0 0-2.35-5.65ZM21 28.063a7.034 7.034 0 0 1-3.44-.898.47.47 0 0 0-.343-.046l-3.106.77.77-3.107a.47.47 0 0 0-.046-.342 7.032 7.032 0 0 1-.898-3.44A7.07 7.07 0 0 1 21 13.937 7.07 7.07 0 0 1 28.063 21 7.07 7.07 0 0 1 21 28.063Z"/><path d="M25.23 22.423c-.31-.31-.652-.624-1.047-.815-.59-.284-1.154-.203-1.586.23-.197.197-.468.585-.624.776-.402-.067-1.206-.745-1.524-1.063-.318-.318-.995-1.122-1.062-1.523.19-.155.579-.427.776-.624.432-.433.514-.996.23-1.586-.191-.396-.505-.738-.816-1.048-.632-.646-1.608-.694-2.45.149-.63.629-1.19 1.796-.288 3.78.534 1.174 1.395 2.212 1.819 2.64l.003.004c.429.424 1.467 1.285 2.64 1.818 1.327.603 2.747.746 3.781-.287.855-.855.783-1.83.149-2.45Zm-.81 1.788c-.611.61-1.53.643-2.73.097-1.054-.48-2.009-1.275-2.367-1.63-.356-.359-1.15-1.313-1.63-2.367-.546-1.2-.514-2.119.097-2.73.356-.356.766-.514 1.118-.155l.006.007c.833.832.773 1.12.586 1.308-.167.167-.66.501-.819.66-.373.374-.304.953.207 1.72.305.458.707.903.897 1.093l.001.001c.19.19.635.593 1.093.898.768.51 1.347.58 1.72.206.16-.159.494-.651.66-.818.127-.127.253-.175.517-.048.306.148.634.476.792.633l.007.007c.361.354.2.761-.156 1.118Z"/></g><defs><clipPath id="ia"><path fill="#fff" transform="translate(13 13)" d="M0 0h16v16H0z"/></clipPath></defs></svg></svg>