<svg width="47" height="47" viewBox="0 0 47 47" fill="none" xmlns="http://www.w3.org/2000/svg"><path d="m20.263 4.177-.214.183-.023 1.15-.022 1.15h-1.516c-.83 0-1.57.024-1.638.046-.29.115-.343.42-.343 1.974v1.485h-1.128c-1.615 0-1.462-.335-1.462 3.223v2.864l-2.903.023-2.903.023-.182.213-.183.213v24.981h-.663c-.693.008-.838.053-.998.358-.145.267-.107.48.13.716l.22.221h34.618l.22-.22c.237-.237.275-.45.13-.717-.16-.305-.304-.35-.99-.358h-.67V24.45c0-18.444.015-17.606-.343-17.744-.069-.022-3.002-.045-6.506-.045H26.51l-.145.16c-.13.144-.152.327-.183 1.737l-.038 1.57h-1.295l-.023-1.57c-.023-2.057.145-1.89-1.92-1.912l-1.561-.023-.023-1.067c-.016-1.127-.069-1.34-.374-1.478-.274-.13-.45-.099-.685.1Zm3.253 4.883v1.105l-2.834-.015-2.842-.023-.023-1.09-.023-1.081h5.722V9.06Zm14.931 15.77v16.875l-2.415-.015-2.422-.023-.015-8.952c-.016-6.551-.046-8.997-.107-9.119-.114-.213-.465-.358-.693-.29-.29.092-.442.275-.488.587l-.053.29h-1.25l-.053-.29c-.13-.838-1.18-.792-1.28.061l-.023.19-1.081.024-1.09.022V7.956h10.97V24.83Zm-12.28-7.03-.023 6.346h-4.8l-.022-1.09-.023-1.081h1.051c1.15 0 1.364-.061 1.531-.412a.584.584 0 0 0-.144-.716c-.122-.107-.358-.137-1.273-.168l-1.12-.038-.022-1.09-.023-1.08h1.051c1.15 0 1.364-.062 1.531-.412a.584.584 0 0 0-.144-.716c-.122-.107-.358-.137-1.273-.168l-1.12-.038-.022-.19c-.03-.298-.168-.511-.374-.602-.122-.054-1.09-.084-2.956-.084h-2.78v-4.8h10.97l-.015 6.339Zm-6.156 11.83v12.076h-3.039l-.023-1.554c-.023-1.532-.023-1.562-.206-1.752l-.183-.199h-2.003c-1.852 0-2.004.008-2.172.145-.182.145-.182.175-.22 1.737l-.039 1.585-1.539.023-1.546.015V29.683c0-6.613.023-12.052.053-12.075.023-.03 2.491-.053 5.485-.053h5.432V29.63Zm12.266 3.962v8.114l-5.463-.015-5.47-.023-.022-8.098-.016-8.091h10.971v8.113Zm-16.623 6.986-.023 1.09-.198.023-.206.023-.023-.686c-.03-.594-.053-.709-.213-.876a.625.625 0 0 0-.853-.054c-.16.13-.19.229-.221.861-.038.709-.038.709-.244.732l-.213.023v-2.217h2.217l-.023 1.081Z" fill="#fff"/><path d="M29.877 10.355c-.175.168-.19.244-.19.877 0 .632.015.708.19.876.312.32.8.236 1.013-.168.13-.236.114-1.204-.023-1.463-.19-.373-.685-.434-.99-.122Zm2.643-.037c-.327.304-.335 1.447-.015 1.79a.591.591 0 0 0 .876 0c.176-.168.19-.244.19-.899 0-.647-.014-.731-.174-.876-.229-.213-.655-.221-.877-.015Zm2.613.037c-.175.168-.19.244-.19.877 0 .632.015.708.19.876.313.32.8.236 1.014-.168.13-.236.114-1.204-.023-1.463-.19-.373-.686-.434-.99-.122Zm-5.103 4.244c-.29.168-.336.312-.336 1.013 0 .762.061.907.435 1.036.175.061.29.054.45-.023.327-.152.41-.396.388-1.104-.016-.51-.054-.655-.176-.777-.19-.198-.563-.267-.762-.145Zm2.627.007a.832.832 0 0 0-.281.282c-.122.244-.122 1.204 0 1.448a.622.622 0 0 0 .754.312c.373-.13.434-.282.442-1.013 0-.777-.03-.869-.313-1.013-.259-.137-.358-.137-.602-.016Zm2.629-.007c-.29.168-.336.312-.343 1.02 0 .64.015.702.19.87.26.243.663.243.9.014.144-.144.175-.274.19-.845.03-.61.015-.686-.153-.869-.205-.236-.563-.327-.784-.19Zm-5.409 4.518c-.175.167-.19.243-.19.876 0 .632.015.708.19.876.122.13.267.19.434.19.488-.007.67-.297.67-1.066 0-.77-.182-1.06-.67-1.067a.572.572 0 0 0-.434.19Zm2.689-.084c-.198.145-.29.457-.29.96 0 .746.199 1.059.671 1.066.168 0 .313-.06.434-.19.176-.168.191-.244.191-.876 0-.633-.015-.709-.19-.876-.206-.214-.602-.252-.816-.084Zm2.567.084c-.175.167-.19.243-.19.876 0 .632.015.708.19.876.313.32.8.236 1.014-.168.13-.236.114-1.203-.023-1.462-.19-.374-.686-.435-.99-.122Zm.153 4.243c-.084.046-.19.145-.244.206-.13.16-.13 1.455 0 1.615.267.35.77.358 1.044.015.122-.16.152-.312.152-.83 0-.549-.023-.655-.168-.823-.205-.229-.563-.313-.784-.183Zm-.153 4.518c-.175.167-.19.243-.19.876 0 .632.015.708.19.876.305.312.8.251.99-.122.138-.26.153-1.227.024-1.463-.214-.404-.701-.487-1.014-.167Zm.267 4.205c-.061.023-.19.114-.282.198-.16.137-.175.229-.175.846.008.716.053.86.358 1.02.267.145.48.107.724-.136.228-.23.228-.244.198-.915-.015-.556-.054-.708-.175-.83-.168-.168-.473-.252-.648-.183Zm-.267 4.556c-.175.167-.19.244-.19.876s.015.709.19.876c.305.312.8.252.99-.122.138-.259.153-1.226.024-1.462-.214-.404-.701-.488-1.014-.168ZM17.589 13.845c-.19.198-.221.624-.061.83.198.267.48.29 3.192.29 2.895 0 2.979-.016 3.162-.412.13-.251.068-.526-.153-.731-.16-.145-.259-.152-3.07-.152h-2.91l-.16.175Zm-6.019 6.887c-.29.114-.45 1.31-.228 1.722.213.403.7.487 1.013.167.175-.167.19-.244.19-.876s-.015-.708-.19-.876c-.175-.183-.526-.244-.785-.137Zm2.537.137c-.175.168-.19.244-.19.876s.015.708.19.876c.122.13.267.19.434.19.473-.007.67-.32.67-1.066 0-.747-.197-1.059-.67-1.067a.572.572 0 0 0-.434.19Zm2.697-.092c-.221.168-.297.42-.297.968 0 .77.183 1.059.67 1.066.168 0 .313-.06.434-.19.176-.168.19-.244.19-.876s-.014-.709-.19-.876c-.205-.206-.601-.252-.807-.092Zm-5.143 4.32c-.312.122-.411.373-.411 1.036 0 .503.03.655.152.815a.654.654 0 0 0 1.044-.015c.13-.16.13-1.455 0-1.615-.198-.26-.487-.343-.785-.221Zm2.599.015c-.29.168-.336.313-.344 1.021 0 .587.023.709.153.853.206.221.48.282.731.153.335-.153.42-.396.396-1.105-.015-.51-.053-.655-.175-.777-.19-.198-.564-.267-.762-.145Zm2.628.008c-.275.137-.381.411-.381 1.005 0 .61.106.869.411 1.014.252.13.526.068.732-.153.13-.144.152-.266.152-.853-.008-.716-.053-.86-.358-1.02-.206-.115-.32-.115-.556.007Zm-5.341 4.418c-.22.168-.297.42-.297.968 0 .564.122.937.343 1.02.267.1.579.047.762-.144.175-.168.19-.244.19-.876s-.015-.709-.19-.876c-.206-.206-.602-.252-.808-.091Zm2.56.092c-.175.168-.19.244-.19.899 0 .647.015.731.175.876.228.213.655.22.876.015.327-.305.335-1.447.015-1.79a.591.591 0 0 0-.876 0Zm2.697-.092c-.221.168-.297.42-.297.968 0 .564.122.937.343 1.02.266.1.579.047.761-.144.176-.168.19-.244.19-.876s-.014-.709-.19-.876c-.205-.206-.601-.252-.807-.091ZM11.63 33.88c-.281.145-.38.412-.38 1.067 0 .564.015.61.22.823.237.236.45.274.717.13.305-.16.35-.305.358-1.021 0-.617-.015-.709-.168-.853-.228-.206-.51-.267-.746-.145Zm2.675-.014c-.328.13-.38.289-.389 1.036 0 .61.023.731.153.86.32.32.845.244 1.044-.152.13-.259.122-1.173-.008-1.44a.78.78 0 0 0-.312-.297c-.229-.106-.244-.106-.488-.007Zm2.583.014a.832.832 0 0 0-.282.283c-.122.244-.122 1.203 0 1.447.213.42.716.488 1.044.137.13-.144.152-.266.152-.86 0-.625-.015-.717-.168-.861-.228-.206-.51-.267-.746-.145Zm7.009-7.008c-.389.198-.381.038-.381 6.704 0 6.613 0 6.575.343 6.712.274.099.624.046.784-.13l.168-.175v-6.4c-.008-6.757.007-6.528-.358-6.719-.206-.114-.32-.114-.556.008Zm2.673-.015c-.396.16-.38-.122-.388 6.704 0 6.33 0 6.369.16 6.575.297.38.975.213 1.097-.275.023-.099.03-2.994.023-6.437-.023-6.148-.023-6.27-.175-6.415a.665.665 0 0 0-.716-.152Zm2.583.015c-.388.198-.38.038-.38 6.704 0 6.613 0 6.575.342 6.712.275.099.625.046.785-.13l.168-.175v-6.4c-.008-6.757.007-6.528-.359-6.719-.205-.114-.32-.114-.556.008Z" fill="#fff"/></svg>