<svg width="35" height="37" viewBox="0 0 35 37" fill="none" xmlns="http://www.w3.org/2000/svg"><path d="M8.135.867v.867h18.73V0H8.135v.867Zm7.164 4.271c-1.176 1.272-2.147 2.334-2.16 2.363-.007.03.232.31.533.629l.547.578 1.23-1.3 1.23-1.302v24.788l-1.23-1.301-1.23-1.301-.56.593-.561.592 1.647 1.792c.91.983 1.9 2.053 2.201 2.37l.554.579.554-.578c.3-.318 1.292-1.388 2.2-2.37l1.648-1.793-.56-.592-.56-.593-1.231 1.3-1.23 1.302V6.106l1.23 1.301 1.23 1.301.547-.578c.3-.318.54-.6.533-.629-.034-.094-4.306-4.683-4.361-4.683-.034 0-1.019 1.041-2.201 2.32ZM8.135 36.133V37h18.73v-1.734H8.135v.867Z" fill="#fff"/></svg>