<svg width="39" height="40" viewBox="0 0 39 40" fill="none" xmlns="http://www.w3.org/2000/svg"><path d="M.394.117c-.373.211-.38.305-.388 3 0 2.741.015 2.858.418 3.046.115.055.549.094 1.028.094h.838V33.75h-.838c-.936 0-1.203.086-1.355.43-.13.289-.13 5.1 0 5.39.183.413.305.429 2.954.429 2.65 0 2.771-.016 2.954-.43.053-.117.091-.562.091-1.054v-.86h26.8v.86c0 .96.084 1.234.419 1.39.137.07.906.094 2.634.094 2.642 0 2.764-.016 2.946-.43.145-.32.13-5.131-.015-5.42-.167-.32-.419-.399-1.34-.399h-.837V6.257h.837c.921 0 1.173-.079 1.34-.399.16-.32.16-5.132 0-5.452-.198-.383-.32-.398-2.939-.398-1.72 0-2.49.023-2.626.094-.335.156-.42.43-.42 1.39v.86H6.097v-.86c0-.945-.076-1.203-.388-1.375-.297-.156-5.04-.156-5.314 0Zm4.18 3.015v1.562H1.528V1.57h3.046v1.562Zm32.89 0v1.562h-3.045V1.57h3.045v1.562Zm-4.568 1.64c0 1.36.114 1.485 1.447 1.485h.837V9.85H13.405v-.86c0-.96-.083-1.234-.418-1.39-.137-.07-.906-.094-2.627-.094-2.619 0-2.74.016-2.939.399-.144.289-.16 5.1-.015 5.42.152.344.419.43 1.355.43H9.6v3.906c0 4.241 0 4.241.418 4.436.252.117.434.117.686 0 .418-.195.418-.195.418-4.436v-3.906h.838c1.325 0 1.446-.117 1.446-1.484v-.86H35.18v22.34h-.837c-1.333 0-1.447.125-1.447 1.484v.86H11.12v-3.906c0-4.241 0-4.241-.418-4.437-.252-.117-.434-.117-.686 0-.418.196-.418.196-.418 4.437v3.905H6.096v-.859c0-1.359-.114-1.484-1.446-1.484h-.838V6.257h.838c1.332 0 1.446-.125 1.446-1.484v-.86h26.8v.86Zm-21.013 5.859v1.562H8.837V9.069h3.046v1.562Zm-7.31 26.245v1.562H1.529v-3.125h3.046v1.563Zm32.891 0v1.562h-3.045v-3.125h3.045v1.563Z" fill="#fff"/></svg>