<svg width="34" height="34" viewBox="0 0 34 34" fill="none" xmlns="http://www.w3.org/2000/svg"><g clip-path="url(#a)" fill="#fff"><path d="M8.201.113C7.305.438 6.84 1.149 6.84 2.198v.452l-2.67.02c-2.643.02-2.683.02-2.988.172a2.4 2.4 0 0 0-.996.996l-.153.312v25.7l.153.312c.2.398.598.797.996.996l.312.152 4.894.02 4.894.014.22-.193c.179-.16.219-.239.219-.471 0-.233-.04-.313-.22-.472l-.212-.192H1.78l-.226-.226-.226-.226V4.436l.226-.226.226-.226h5.047l.026.578c.047.936.385 1.507 1.102 1.86.313.152.465.185.877.185 1.175 0 1.912-.763 1.979-2.045l.027-.578h10.731l.026.578c.034.657.173 1.043.512 1.434.544.611 1.573.804 2.344.425.717-.352 1.056-.923 1.102-1.859l.027-.578h5.047l.225.226.226.226v3.533H18.461c-13.733 0-12.896-.027-13.069.365-.1.219-.1.378 0 .598.173.391-.664.365 13.069.365h12.617v13.142l-.61-.293a7.583 7.583 0 0 0-.93-.372l-.32-.073v-5.007c0-3.732-.02-5.046-.079-5.173-.173-.385.65-.365-12.936-.365-13.587 0-12.763-.02-12.936.365-.113.253-.113 16.018 0 16.27.173.385-.332.365 9.344.365h8.898l.04.246c.046.305.299 1.414.345 1.527.027.067-.564.087-2.802.087-3.015 0-3.115.006-3.287.325-.087.166-.087.511 0 .677.172.319.245.326 3.625.326h3.161l.598.63c.89.943 1.833 1.508 3.041 1.833.817.22 2.252.22 3.055 0 1.82-.491 3.28-1.693 4.084-3.36.458-.943.591-1.547.591-2.69.007-.796-.02-1.062-.146-1.527-.193-.724-.65-1.66-1.076-2.218l-.332-.431-.013-9.715-.02-9.716-.153-.312a2.281 2.281 0 0 0-.982-.99l-.326-.159-2.663-.02-2.67-.02-.026-.577c-.046-.93-.385-1.501-1.102-1.853-.312-.153-.465-.186-.877-.186-1.175 0-1.912.764-1.979 2.039l-.026.584H10.838l-.027-.584c-.033-.651-.173-1.036-.511-1.428C9.828.106 8.885-.133 8.2.113Zm.956 1.308c.313.166.34.325.34 1.906 0 1.135-.02 1.5-.094 1.647-.232.438-.91.438-1.142 0-.133-.26-.133-3.068 0-3.307.173-.312.558-.419.896-.246Zm14.743 0c.312.166.338.325.338 1.906 0 1.135-.02 1.5-.093 1.647-.232.438-.91.438-1.142 0-.133-.26-.133-3.068 0-3.307.173-.312.558-.419.897-.246ZM8.102 14.443v1.96H4.516v-3.919h3.586v1.96Zm4.98 0v1.96H9.43v-3.919h3.652v1.96Zm4.914 0v1.96H14.41v-3.919h3.586v1.96Zm4.98 0v1.96h-3.652v-3.919h3.653v1.96Zm4.915 0v1.96h-3.586v-3.919h3.586v1.96ZM8.1 19.656v1.926H4.517V17.73h3.586v1.926Zm4.981 0v1.926H9.43V17.73h3.652v1.926Zm4.914 0v1.926H14.41V17.73h3.586v1.926Zm4.98 0v1.926h-3.652V17.73h3.653v1.926Zm4.915-.04v1.88l-.545.04a28.73 28.73 0 0 1-1.793.046h-1.248V17.73h3.586v1.886Zm1.228 3.427c1.275.398 2.384 1.288 2.935 2.357.459.89.585 1.395.585 2.358 0 .963-.127 1.474-.585 2.357-.385.737-1.202 1.554-1.939 1.94-.883.457-1.394.584-2.357.584-.684 0-.917-.027-1.328-.16-1.7-.524-2.862-1.686-3.387-3.36-.578-1.866.173-4.11 1.78-5.293.484-.358 1.334-.75 1.905-.876.651-.146 1.774-.1 2.391.093ZM8.102 24.869v1.959H4.516V22.91h3.586v1.959Zm4.98 0v1.959H9.43V22.91h3.652v1.959Zm4.914 0v1.959H14.41V22.91h3.586v1.959Zm4.98-1.54c0 .385-.02.444-.272.776-.146.2-.398.631-.558.963-.252.525-.352.824-.524 1.574l-.04.186h-2.258V22.91h3.653v.418Z"/><path d="m28.747 27.074-1.122 1.109-.485-.472c-.704-.69-.936-.77-1.321-.425-.18.16-.22.24-.22.465 0 .266.04.312.884 1.149 1.228 1.235 1.016 1.275 2.835-.545.79-.783 1.448-1.494 1.468-1.58.106-.398-.226-.81-.658-.81-.252 0-.312.046-1.38 1.109ZM2.995 8.062c-.578.318-.332 1.235.325 1.235.34 0 .665-.326.665-.658a.669.669 0 0 0-.99-.577ZM13.4 30.122c-.225.12-.318.285-.318.558 0 .278.1.444.332.564.286.146.505.12.744-.093.18-.16.219-.24.219-.471 0-.233-.04-.313-.22-.472-.238-.212-.477-.239-.756-.086Z"/></g><defs><clipPath id="a"><path fill="#fff" d="M0 0h34v34H0z"/></clipPath></defs></svg>