<svg width="5" height="8" viewBox="0 0 5 8" fill="none" xmlns="http://www.w3.org/2000/svg">
<path d="M4.34413 0.294713C4.40661 0.319774 4.45321 0.358903 4.58565 0.493325C4.78853 0.700008 4.81503 0.748872 4.81447 0.904432C4.81341 0.987197 4.80568 1.0342 4.78517 1.07533C4.76613 1.11362 4.30352 1.57584 3.34677 2.50988L1.93624 3.88628L3.3126 5.29967C4.38327 6.39802 4.69593 6.72599 4.7167 6.77621C4.73613 6.81928 4.74544 6.8722 4.74466 6.93356C4.74278 7.08054 4.70049 7.15136 4.49963 7.34576C4.35801 7.48239 4.31623 7.51326 4.24741 7.53807C4.14273 7.5767 4.05996 7.57564 3.95628 7.53578C3.87674 7.50622 3.80346 7.4325 2.22281 5.81098C0.395603 3.93798 0.499707 4.05634 0.502111 3.86798C0.504515 3.67961 0.397424 3.79528 2.27183 1.96952C3.8948 0.387457 3.96848 0.317037 4.04876 0.289517C4.15198 0.253726 4.2433 0.254892 4.34413 0.294713Z" fill="white"/>
</svg>
