<svg width="6" height="8" viewBox="0 0 6 8" fill="none" xmlns="http://www.w3.org/2000/svg">
<path d="M1.47638 0.172331C1.41328 0.195789 1.3657 0.233717 1.22987 0.364715C1.02178 0.566153 0.994045 0.614324 0.990633 0.769848C0.989577 0.852614 0.996111 0.899796 1.01556 0.941434C1.03362 0.980199 1.48428 1.45408 2.41688 2.41223L3.79183 3.82418L2.37985 5.20198C1.28149 6.27265 0.960568 6.59254 0.938526 6.64221C0.918001 6.68477 0.907339 6.73744 0.906556 6.7988C0.90468 6.94578 0.945152 7.01766 1.14099 7.21711C1.27907 7.35731 1.32005 7.38924 1.38822 7.4158C1.49188 7.45708 1.57465 7.45814 1.67931 7.42094C1.75958 7.39342 1.83472 7.32159 3.45623 5.74094C5.33064 3.91518 5.22355 4.03084 5.22596 3.84248C5.22836 3.65412 5.33246 3.77248 3.50526 1.89947C1.9232 0.276512 1.85133 0.204234 1.77178 0.174674C1.66951 0.136261 1.57819 0.135096 1.47638 0.172331Z" fill="white"/>
</svg>
