<svg width="13" height="19" viewBox="0 0 13 19" fill="none" xmlns="http://www.w3.org/2000/svg">
<path d="M6.32455 19C6.71262 19 7.02716 18.7012 7.02716 18.3325L7.02716 2.25858L11.4553 6.46916C11.5901 6.59722 11.7698 6.6632 11.9495 6.6632C12.1293 6.6632 12.309 6.59722 12.4438 6.46916C12.7175 6.20915 12.7175 5.78615 12.4438 5.52614L6.81883 0.186275C6.55739 -0.0620902 6.09171 -0.0620902 5.82618 0.186275L0.205269 5.53003C-0.0684238 5.79003 -0.0684238 6.21303 0.205269 6.47304C0.478962 6.73305 0.924223 6.73305 1.19792 6.47304L5.62602 2.26634L5.62602 18.3364C5.62193 18.7051 5.93648 19 6.32455 19Z" fill="white"/>
</svg>
