<svg width="13" height="9" viewBox="0 0 13 9" fill="none" xmlns="http://www.w3.org/2000/svg">
<path d="M12.9441 1.55469C12.901 1.44297 12.8324 1.35918 12.5963 1.12051C12.2332 0.754883 12.1469 0.706641 11.8701 0.704102C11.7228 0.704102 11.639 0.716797 11.5654 0.752344C11.4969 0.785352 10.664 1.59785 8.98064 3.27871L6.49998 5.75684L4.01678 3.27617C2.08709 1.34648 1.51072 0.782813 1.42185 0.744727C1.34568 0.70918 1.25174 0.691406 1.14256 0.691406C0.881035 0.691406 0.754081 0.765039 0.403691 1.11797C0.157402 1.3668 0.101542 1.44043 0.0558393 1.5623C-0.0152545 1.74766 -0.0152545 1.89492 0.0533002 2.08027C0.104081 2.22246 0.233574 2.35449 3.0824 5.20332C6.37303 8.49648 6.16482 8.30859 6.49998 8.30859C6.83514 8.30859 6.62693 8.49648 9.91756 5.20332C12.7689 2.35195 12.8959 2.22246 12.9467 2.08027C13.0127 1.89746 13.0127 1.73496 12.9441 1.55469Z" fill="white"/>
</svg>
