<svg width="42" height="42" viewBox="0 0 42 42" fill="none" xmlns="http://www.w3.org/2000/svg">
<circle cx="21" cy="21" r="21" fill="#F29D39"/>
<path d="M13.9975 15.9121C13.5026 16.0023 13.0727 16.4157 12.9768 16.8989C12.9335 17.1085 12.9335 25.8272 12.9768 26.0426C13.0758 26.5346 13.5026 26.9363 14.0284 27.0295C14.2542 27.0702 27.4738 27.0702 27.6996 27.0295C28.2254 26.9363 28.6522 26.5346 28.7512 26.0426C28.7945 25.8272 28.7945 17.1115 28.7512 16.896C28.6522 16.4041 28.2254 16.0023 27.6996 15.9092C27.4924 15.8713 14.1986 15.8742 13.9975 15.9121ZM27.5264 16.5176C27.5851 16.538 26.8768 17.1609 22.8343 20.6193C21.2073 22.0137 21.2661 21.9671 21.1269 22.0254C20.9692 22.0952 20.7588 22.0952 20.598 22.0254C20.4805 21.9759 19.0268 20.7445 15.5626 17.7606C14.3934 16.7534 14.1553 16.5351 14.2016 16.5176C14.279 16.4885 27.449 16.4885 27.5264 16.5176ZM16.243 19.1871C17.672 20.4126 18.8412 21.4257 18.8474 21.4373C18.8505 21.4519 18.5659 21.7022 18.2133 21.9962C17.3225 22.7386 16.2307 23.6847 14.8543 24.9015C14.2109 25.4721 13.6758 25.9407 13.6604 25.9466C13.6449 25.9524 13.6263 25.9262 13.614 25.8884C13.5892 25.801 13.5892 17.1668 13.614 17.0474C13.6263 16.9979 13.6387 16.9572 13.6418 16.9572C13.648 16.9572 14.8172 17.9586 16.243 19.1871ZM28.1295 21.4548C28.1295 23.8564 28.1233 25.8505 28.114 25.8884C28.1017 25.9262 28.0831 25.9524 28.0677 25.9466C28.0522 25.9407 27.5171 25.4721 26.8737 24.9015C25.4974 23.6847 24.4055 22.7386 23.5147 21.9962C23.1621 21.7022 22.8776 21.4519 22.8807 21.4373C22.8868 21.4257 24.0591 20.4097 25.4881 19.1812C27.8481 17.1522 28.0862 16.9572 28.1048 17.0183C28.1171 17.0561 28.1264 19.0531 28.1295 21.4548ZM19.7412 22.1855C20.2702 22.6309 20.6011 22.756 21.0589 22.6891C21.362 22.6454 21.5847 22.5231 21.9899 22.1825C22.3054 21.9147 22.361 21.8798 22.4074 21.9118C22.7786 22.1855 24.4952 23.6556 26.2706 25.2217C27.446 26.2581 27.6006 26.4065 27.5387 26.424C27.4985 26.4327 24.4952 26.4415 20.864 26.4415C17.2328 26.4415 14.2295 26.4327 14.1893 26.424C14.1274 26.4065 14.2852 26.2581 15.4574 25.2217C16.1936 24.5725 17.0534 23.8186 17.3689 23.5478C17.9628 23.0326 19.3453 21.8769 19.3639 21.8769C19.3701 21.8769 19.5402 22.0137 19.7412 22.1855Z" fill="white"/>
</svg>
