<svg width="42" height="42" viewBox="0 0 42 42" fill="none" xmlns="http://www.w3.org/2000/svg">
<circle cx="21" cy="21" r="21" fill="#F29D39"/>
<g clip-path="url(#clip0_79_40)">
<path d="M15.8626 13.0467C15.6095 13.1123 15.3501 13.256 15.0845 13.4842C14.7907 13.7373 13.7376 14.8092 13.5657 15.031C12.8689 15.9217 12.8564 17.306 13.5314 19.0935C14.3532 21.2779 15.8939 23.4904 17.8439 25.2873C20.5314 27.7654 24.1313 29.3685 25.9845 28.9185C26.2595 28.8529 26.7157 28.6404 26.9251 28.481C27.1376 28.3217 28.5501 26.8717 28.6813 26.681C28.9251 26.3279 29.0188 25.856 28.9251 25.456C28.8188 25.0092 28.7845 24.9685 27.4251 23.606C26.0532 22.2342 26.0095 22.1998 25.5563 22.106C25.197 22.031 24.8314 22.0967 24.4782 22.2998C24.397 22.3498 24.0095 22.7029 23.6188 23.0904L22.9095 23.7904L22.6813 23.6717C22.122 23.381 21.7095 23.1029 21.0939 22.5967C20.4626 22.0779 19.5814 21.1685 19.0939 20.531C18.7407 20.0685 18.222 19.2154 18.2189 19.0998C18.2189 19.0779 18.4626 18.8217 18.7595 18.531C19.3845 17.9217 19.6314 17.6373 19.772 17.3685C19.947 17.0279 19.9814 16.5967 19.8595 16.2404C19.7376 15.8779 19.6189 15.7404 18.4251 14.5435C17.2439 13.3623 17.0626 13.206 16.7251 13.0904C16.4907 13.006 16.1032 12.9873 15.8626 13.0467ZM16.5876 13.9248C16.6751 13.9748 17.1751 14.4467 17.847 15.1217C19.0626 16.3404 19.1095 16.3967 19.1064 16.7185C19.1064 17.0029 19.0314 17.1029 18.2157 17.9185C17.8032 18.3279 17.4439 18.706 17.4189 18.7592C17.3814 18.8248 17.372 18.9154 17.3814 19.0685C17.3907 19.256 17.4157 19.3279 17.6064 19.706C18.0376 20.5623 18.6064 21.3154 19.547 22.2779C20.4814 23.2342 21.4126 23.9467 22.372 24.4404C22.7126 24.6154 22.7782 24.6404 22.9345 24.6373C23.0407 24.6373 23.1532 24.6154 23.2189 24.581C23.2782 24.5498 23.6657 24.1873 24.0782 23.7779C24.6095 23.2498 24.8688 23.0154 24.9689 22.9717C25.1564 22.8873 25.4001 22.8873 25.572 22.9717C25.7595 23.0654 27.9688 25.2717 28.0657 25.4654C28.1188 25.5685 28.1407 25.6623 28.1407 25.7967C28.1407 26.1185 28.0751 26.206 27.1876 27.0967C26.3095 27.9779 26.2282 28.0373 25.7595 28.1435C25.3063 28.2435 24.547 28.1623 23.7782 27.9342C22.6063 27.5873 21.0314 26.756 19.7345 25.7998C17.2376 23.9623 15.0939 21.1529 14.2032 18.556C13.7782 17.3217 13.7314 16.4373 14.0564 15.781C14.1564 15.5717 14.2501 15.4654 14.9001 14.806C15.3001 14.3998 15.6845 14.031 15.7501 13.9842C16.0314 13.7904 16.3189 13.7685 16.5876 13.9248Z" fill="white"/>
</g>
<defs>
<clipPath id="clip0_79_40">
<rect width="16" height="16" fill="white" transform="translate(13 13)"/>
</clipPath>
</defs>
</svg>
