<svg width="42" height="42" viewBox="0 0 42 42" fill="none" xmlns="http://www.w3.org/2000/svg">
<circle cx="21" cy="21" r="21" fill="#3A8CAF"/>
<path d="M26.403 16.1686C26.113 16.2653 23.1745 17.235 19.8698 18.3249C16.5681 19.4118 13.7702 20.3346 13.653 20.3786C13.3894 20.4723 13.2077 20.6305 13.0964 20.8532C12.9851 21.0788 12.9821 21.4186 13.0847 21.6208C13.1696 21.7878 13.3337 21.9606 13.4743 22.0339C13.5329 22.0632 14.3034 22.4059 15.1853 22.7926C16.0671 23.1794 16.7907 23.4987 16.7966 23.5046C16.8025 23.5104 17.031 24.5534 17.3034 25.8219C17.5788 27.0905 17.8249 28.1774 17.8542 28.236C17.9655 28.4645 18.2321 28.5407 18.4636 28.4089C18.528 28.3708 19.1374 27.9225 19.8171 27.4128L21.0534 26.487L22.4831 27.6559C23.2683 28.3005 23.9773 28.86 24.0564 28.904C24.2439 29.0065 24.5017 29.03 24.7331 28.9596C24.9704 28.8923 25.24 28.6257 25.3132 28.3884C25.3396 28.3005 25.9577 25.696 26.6843 22.6022C28.1345 16.4294 28.0583 16.8102 27.903 16.5055C27.7448 16.1979 27.4812 16.0251 27.1355 16.0046C26.948 15.9958 26.8864 16.0075 26.403 16.1686ZM27.1062 16.9538C27.0945 17.0007 26.4997 19.526 25.7849 22.57C25.07 25.6139 24.4782 28.113 24.4695 28.1188C24.4607 28.1276 24.4314 28.113 24.405 28.0895C24.3757 28.0661 23.365 27.237 22.155 26.2497C20.948 25.2624 19.946 24.445 19.9343 24.4333C19.9226 24.4216 20.9421 23.3346 22.2048 22.0163C23.4675 20.6979 24.528 19.5729 24.5632 19.5143C24.6071 19.444 24.6306 19.362 24.6306 19.2741C24.6306 19.1569 24.613 19.1188 24.5193 19.0134C24.4138 18.8932 24.3962 18.8844 24.2321 18.8757L24.0593 18.8639L20.6111 20.78L17.1657 22.696L15.5193 21.9782C14.6169 21.5827 13.8874 21.2487 13.9021 21.2341C13.9255 21.2106 27.0212 16.8805 27.0886 16.8776C27.1179 16.8747 27.1208 16.8952 27.1062 16.9538ZM21.8181 21.1344C21.8181 21.1403 21.1648 21.8317 20.365 22.6667C19.5652 23.5016 18.8913 24.2223 18.8708 24.2721C18.8503 24.319 18.7155 24.7614 18.5779 25.2536C18.4372 25.7458 18.3142 26.1559 18.3025 26.1706C18.2849 26.1911 17.7107 23.5837 17.7048 23.4577C17.7019 23.4196 18.1999 23.1296 19.7527 22.2653C20.8806 21.6384 21.8064 21.1227 21.8122 21.1227C21.8152 21.1227 21.8181 21.1286 21.8181 21.1344ZM19.9665 25.5993C20.1657 25.7604 20.3269 25.901 20.3269 25.9128C20.3269 25.9421 19.0495 26.8942 19.0407 26.8708C19.0378 26.8591 19.114 26.5719 19.2107 26.235C19.5271 25.1393 19.5007 25.2126 19.5564 25.2624C19.5827 25.2858 19.7673 25.4352 19.9665 25.5993Z" fill="white" fill-opacity="0.84"/>
</svg>
