<svg width="42" height="42" viewBox="0 0 42 42" fill="none" xmlns="http://www.w3.org/2000/svg">
<circle cx="21" cy="21" r="21" fill="#3FB452"/>
<g clip-path="url(#clip0_79_32)">
<path d="M26.6504 15.3496C25.1353 13.8345 23.1285 13 21 13C16.5947 13 13 16.5952 13 21C13 22.3035 13.3201 23.5902 13.9274 24.7341L13.0138 28.4185C12.9742 28.5779 13.0211 28.7465 13.1373 28.8627C13.2528 28.9783 13.4211 29.026 13.5815 28.9862L17.2659 28.0725C18.4098 28.6798 19.6965 29 21 29C23.1285 29 25.1353 28.1655 26.6504 26.6504C28.1655 25.1351 29 23.1285 29 21C29 18.8715 28.1655 16.8647 26.6504 15.3496ZM21 28.0625C19.7939 28.0625 18.6045 27.7521 17.5599 27.165C17.4559 27.1066 17.3335 27.09 17.2174 27.1187L14.111 27.889L14.8812 24.7825C14.91 24.6666 14.8934 24.5441 14.835 24.4399C14.2478 23.3955 13.9375 22.2061 13.9375 21C13.9375 17.1057 17.1057 13.9375 21 13.9375C24.8943 13.9375 28.0625 17.1057 28.0625 21C28.0625 24.8943 24.8943 28.0625 21 28.0625Z" fill="white" fill-opacity="0.84"/>
<path d="M25.2309 22.4234C24.9202 22.1126 24.5781 21.7989 24.183 21.6083C23.5925 21.3238 23.0292 21.4053 22.5966 21.8379C22.3997 22.0348 22.1288 22.423 21.9729 22.6139C21.5708 22.5467 20.7675 21.8693 20.4485 21.5514C20.1308 21.2325 19.4539 20.429 19.3866 20.0278C19.5764 19.8727 19.966 19.6008 20.1627 19.4041C20.5954 18.9715 20.6769 18.408 20.3924 17.8177C20.2018 17.4224 19.8881 17.0805 19.5775 16.7699C18.945 16.1241 17.9693 16.0765 17.1271 16.9188C16.4977 17.548 15.937 18.7147 16.8394 20.6989C17.3733 21.8727 18.2338 22.9109 18.658 23.3394L18.6613 23.3427C19.0897 23.767 20.128 24.6275 21.3018 25.1613C22.6275 25.7642 24.0484 25.9073 25.0821 24.8737C25.9369 24.0187 25.8649 23.0442 25.2309 22.4234ZM24.4191 24.2107C23.8086 24.8212 22.8904 24.8539 21.6898 24.3079C20.6359 23.8285 19.6815 23.0333 19.3225 22.6782C18.9674 22.319 18.1721 21.3648 17.6928 20.3108C17.1467 19.1103 17.1795 18.1921 17.7899 17.5816C18.1463 17.2253 18.5564 17.0672 18.9077 17.426L18.9144 17.4328C19.7466 18.2649 19.6875 18.5534 19.4998 18.7411C19.3332 18.9078 18.8406 19.2422 18.6814 19.4014C18.3078 19.775 18.3773 20.3536 18.8881 21.121C19.1929 21.5792 19.5955 22.0237 19.7854 22.2142L19.7864 22.2153C19.9769 22.4052 20.4214 22.8078 20.8795 23.1126C21.6471 23.6233 22.2256 23.6928 22.5991 23.3193C22.7584 23.16 23.0928 22.6675 23.2594 22.5009C23.3864 22.374 23.5115 22.3255 23.7758 22.4529C24.0822 22.6006 24.4102 22.9286 24.5679 23.0862L24.5747 23.0929C24.9363 23.4471 24.7755 23.8543 24.4191 24.2107Z" fill="white" fill-opacity="0.84"/>
</g>
<defs>
<clipPath id="clip0_79_32">
<rect width="16" height="16" fill="white" transform="translate(13 13)"/>
</clipPath>
</defs>
</svg>
